<?xml version="1.0" encoding="UTF-8"?>
<svg version="1.1" xmlns="http://www.w3.org/2000/svg" width="1000" height="700">
<path d="M0 0 C0.9895166 0.300271 1.9790332 0.60054199 2.99853516 0.90991211 C15.42340417 4.90201417 25.98790469 11.40581322 32.18286133 23.1875 C35.76770542 30.32188782 37.31305518 35.73509533 37.31054783 43.70595264 C37.31170167 44.38369459 37.31285552 45.06143654 37.31404433 45.75971612 C37.31669528 48.03513269 37.31220135 50.31047877 37.30775452 52.58589172 C37.30819053 54.23187771 37.30906599 55.87786364 37.31034368 57.52384919 C37.31258274 62.05038767 37.30857538 66.57690255 37.30356562 71.10343802 C37.29925289 75.98342299 37.30070813 80.8634066 37.3014679 85.74339294 C37.30199261 94.19947437 37.2988513 102.65554809 37.29323006 111.11162758 C37.28510793 123.3377458 37.2824991 135.56386029 37.28124207 147.78998091 C37.27905267 167.62537025 37.27239562 187.46075547 37.26293945 207.29614258 C37.25376243 226.56599914 37.24668301 245.83585459 37.24243164 265.10571289 C37.24203756 266.88697882 37.24203756 266.88697882 37.24163551 268.70422993 C37.24033048 274.66153711 37.23906677 280.6188443 37.23782361 286.57615149 C37.22745449 336.00910398 37.20956428 385.44205146 37.1875 434.875 C15.0775 434.875 -7.0325 434.875 -29.8125 434.875 C-30.4725 430.915 -31.1325 426.955 -31.8125 422.875 C-33.2350861 419.43904793 -33.2350861 419.43904793 -34.8125 416.875 C-35.1425 415.885 -35.4725 414.895 -35.8125 413.875 C-37.55998754 412.76004471 -37.55998754 412.76004471 -39.8125 411.875 C-40.67617188 411.48183594 -41.53984375 411.08867188 -42.4296875 410.68359375 C-130.67895405 373.54271538 -223.51734851 379.32339924 -313.69750977 404.36096191 C-315.20925707 404.78053551 -316.7222529 405.19564137 -318.23657227 405.60583496 C-332.84495467 409.3874059 -332.84495467 409.3874059 -343.3125 419.5625 C-345.34837494 424.85585601 -345.34837494 424.85585601 -345.8125 434.875 C-366.6025 434.875 -387.3925 434.875 -408.8125 434.875 C-408.90292127 383.83280854 -408.97453618 332.7906363 -409.01676132 281.74838064 C-409.02176416 275.72271586 -409.02694145 269.69705125 -409.03222656 263.67138672 C-409.0332758 262.47178268 -409.03432505 261.27217865 -409.03540608 260.03622298 C-409.05281248 240.61104149 -409.08435149 221.18590735 -409.12111118 201.76075394 C-409.15851401 181.82954989 -409.18073447 161.89837064 -409.18885398 141.96713293 C-409.1943431 129.66796277 -409.21168167 117.36892641 -409.24416587 105.06979744 C-409.26530559 96.63643599 -409.27170125 88.20314373 -409.26650551 79.7697577 C-409.26394291 74.90373678 -409.2678782 70.03794973 -409.2893219 65.17197037 C-409.30882273 60.71427096 -409.3097471 56.25696216 -409.29609558 51.79924457 C-409.29440897 50.18937898 -409.29945323 48.57948877 -409.31203273 46.96967144 C-409.41613325 32.82138978 -406.65518268 23.10062617 -396.8125 12.77734375 C-387.22806135 3.62078183 -374.97458918 0.47219981 -362.5 -3 C-361.73617004 -3.21499146 -360.97234009 -3.42998291 -360.18536377 -3.65148926 C-281.79692861 -25.68826818 -200.20552422 -33.2237695 0 0 Z M-289.125 18 C-290.02300323 18.21182922 -290.92100647 18.42365845 -291.84622192 18.64190674 C-317.65728788 24.04457836 -317.65728788 24.04457836 -337.8125 39.875 C-342.10897524 47.40889947 -345.93910728 54.38251764 -345.93554783 63.22419357 C-345.93753888 64.31549379 -345.93952993 65.40679401 -345.94158131 66.53116393 C-345.93866847 67.72959749 -345.93575563 68.92803104 -345.93275452 70.16278076 C-345.93360894 71.43618325 -345.93446337 72.70958573 -345.93534368 74.02157617 C-345.93758248 77.55843956 -345.93357574 81.09527275 -345.92856562 84.63213229 C-345.92425251 88.44532187 -345.92570816 92.25850971 -345.9264679 96.07170105 C-345.92699258 102.67908889 -345.92385153 109.28646687 -345.91823006 115.89385223 C-345.9101076 125.44705576 -345.90749907 135.0002545 -345.90624207 144.5534611 C-345.90405272 160.05240776 -345.89739581 175.55134917 -345.88793945 191.05029297 C-345.8787623 206.10725885 -345.87168295 221.1642233 -345.86743164 236.22119141 C-345.86716892 237.14909614 -345.86690619 238.07700087 -345.86663551 239.03302392 C-345.86533048 243.68798754 -345.86406677 248.34295116 -345.86282361 252.99791479 C-345.85245465 291.62361354 -345.83483952 330.24930642 -345.8125 368.875 C-345.07645318 368.73222909 -344.34040636 368.58945818 -343.58205509 368.44236088 C-340.19759904 367.78660171 -336.81279238 367.13266945 -333.42797852 366.47875977 C-332.27041298 366.2541935 -331.11284744 366.02962723 -329.92020416 365.79825592 C-320.22509719 363.9274167 -310.51597884 362.26445179 -300.75 360.8125 C-299.92829315 360.68904205 -299.1065863 360.56558411 -298.25997925 360.43838501 C-284.83456048 358.43640072 -271.38528728 356.86638549 -257.875 355.5625 C-257.03548798 355.48127899 -256.19597595 355.40005798 -255.33102417 355.31637573 C-252.89954733 355.08425177 -250.4675835 354.85864784 -248.03515625 354.63671875 C-247.35309113 354.57345398 -246.671026 354.51018921 -245.96829224 354.44500732 C-232.65331959 353.2734339 -219.35744817 352.7120566 -205.9921875 352.671875 C-204.5308479 352.66484798 -203.0695086 352.65776122 -201.60816956 352.65061951 C-196.96794177 352.63124549 -192.32776416 352.62618532 -187.6875 352.625 C-186.89562916 352.62455814 -186.10375832 352.62411629 -185.28789139 352.62366104 C-160.674261 352.61646418 -136.28718398 353.02570034 -111.8125 355.875 C-110.229503 356.05380672 -108.64649487 356.2325149 -107.06347656 356.41113281 C-86.37278687 358.77832692 -65.9223356 362.05675273 -45.50927734 366.17651367 C-42.20507088 366.80082583 -38.89866564 367.36874611 -35.58145142 367.9186554 C-34.50105906 368.09797765 -33.42066669 368.2772999 -32.30753517 368.46205616 C-31.07249276 368.66646336 -31.07249276 368.66646336 -29.8125 368.875 C-29.74379152 330.09668288 -29.69094971 291.31837495 -29.65930401 252.54000925 C-29.65555202 247.9589644 -29.65166904 243.37791967 -29.64770508 238.796875 C-29.64691815 237.8848946 -29.64613122 236.97291421 -29.64532044 236.03329805 C-29.63227646 221.27830626 -29.60862818 206.52334965 -29.58104161 191.7683787 C-29.55295934 176.62163674 -29.53631778 161.47491315 -29.53023452 146.32814622 C-29.52612393 136.98631837 -29.513154 127.64458994 -29.4887506 118.3027927 C-29.47285857 111.89153763 -29.46810748 105.48033374 -29.47199587 99.06906042 C-29.47391203 95.37341939 -29.47103268 91.67795174 -29.45488358 87.98234177 C-29.43746402 83.96644831 -29.44356551 79.95092046 -29.45173645 75.93499756 C-29.44299793 74.77932148 -29.4342594 73.6236454 -29.42525607 72.43294883 C-29.50205986 58.41995408 -33.04791318 46.21531881 -42.72314453 35.83959961 C-49.03369904 29.90584965 -57.05660763 26.67521443 -65.1875 24.0625 C-66.19643311 23.73338623 -67.20536621 23.40427246 -68.24487305 23.06518555 C-143.27429587 -0.69014184 -213.38754429 0.07412169 -289.125 18 Z " fill="#FFFCEB" transform="translate(408.8125,146.125)"/>
<path d="M0 0 C-0.86733599 4.6618673 -3.7132693 7.09327098 -7.00390625 10.296875 C-7.60178452 10.89050842 -8.19966278 11.48414185 -8.81565857 12.09576416 C-10.72434102 13.98767195 -12.6431954 15.86887499 -14.5625 17.75 C-15.85940836 19.03186002 -17.15564078 20.3144043 -18.45117188 21.59765625 C-21.62632957 24.73976072 -24.81064946 27.87230539 -28 31 C-31.50873225 29.63544913 -34.90491213 28.12828694 -38.296875 26.49609375 C-74.09971501 9.46596317 -110.65926478 -0.50391597 -150 -5 C-150 4.24 -150 13.48 -150 23 C-145.606875 23.3403125 -145.606875 23.3403125 -141.125 23.6875 C-109.59058485 26.53557566 -52.95302698 34.08823045 -31 60 C-23.33248405 70.28685369 -18.81967477 80.67427445 -18.88647461 93.54418945 C-18.88632858 94.28619095 -18.88618256 95.02819244 -18.8860321 95.79267883 C-18.88672596 98.2329099 -18.8944936 100.6730636 -18.90234375 103.11328125 C-18.9042098 104.81007343 -18.90563282 106.50686615 -18.90663147 108.20365906 C-18.9104419 112.6604665 -18.92025957 117.11724113 -18.93133545 121.57403564 C-18.94338405 126.92635673 -18.94795883 132.27868881 -18.95378876 137.63101959 C-18.96347213 145.75403585 -18.982639 153.87698018 -19 162 C-43.42 162 -67.84 162 -93 162 C-93 151.44 -93 140.88 -93 130 C-98.28 131.32 -103.56 132.64 -109 134 C-108.02399596 138.88002021 -107.67297398 139.82596814 -104.5 143.1875 C-101.06622517 146.86754967 -101.06622517 146.86754967 -100 149 C-103.23458297 147.8881121 -105.91913511 146.44219429 -108.75 144.5625 C-116.0078631 139.96857167 -123.39883274 137.83178176 -132 139 C-138.5677345 140.7448341 -143.28719495 143.1914633 -149 147 C-149.33 153.27 -149.66 159.54 -150 166 C-170.13 166 -190.26 166 -211 166 C-211.33 154.78 -211.66 143.56 -212 132 C-218.94469499 131.64929525 -218.94469499 131.64929525 -224 135 C-227.98599801 142.64699858 -227.33873674 150.61634827 -227.1875 159 C-227.17242741 160.45701743 -227.15874355 161.91404993 -227.14648438 163.37109375 C-227.11367903 166.91437925 -227.06203907 170.45709171 -227 174 C-227.33 174 -227.66 174 -228 174 C-228.30292969 172.76765625 -228.60585938 171.5353125 -228.91796875 170.265625 C-231.80056161 154.26765885 -231.80056161 154.26765885 -240.15234375 141.69140625 C-240.76207031 141.46324219 -241.37179687 141.23507812 -242 141 C-245.89977145 145.22053187 -247.44041297 149.38427836 -249.125 154.75 C-249.37636719 155.51054687 -249.62773438 156.27109375 -249.88671875 157.0546875 C-251.40594681 161.74759093 -252.57372831 166.40697504 -253.46826172 171.25878906 C-253.64373535 171.83338867 -253.81920898 172.40798828 -254 173 C-254.66 173.33 -255.32 173.66 -256 174 C-255.9278125 172.98421875 -255.855625 171.9684375 -255.78125 170.921875 C-253.84995457 153.67631676 -253.84995457 153.67631676 -257 137 C-258.98 135.02 -258.98 135.02 -261 133 C-261 142.57 -261 152.14 -261 162 C-285.42 162 -309.84 162 -335 162 C-335.16043524 143.30483832 -335.16043524 143.30483832 -335.1953125 135.26367188 C-335.21911559 129.8018415 -335.24710715 124.34028232 -335.30175781 118.87866211 C-335.34559474 114.46955097 -335.36921594 110.06073113 -335.37950897 105.65141869 C-335.3868331 103.97909149 -335.40113299 102.30677811 -335.42292023 100.6345768 C-335.61139034 85.55329792 -333.29078561 73.38106838 -324 61 C-323.52304687 60.35417969 -323.04609375 59.70835937 -322.5546875 59.04296875 C-301.49269648 34.6176755 -248.32131032 27.37758883 -218 24 C-215.69 24 -213.38 24 -211 24 C-211 14.76 -211 5.52 -211 -4 C-213.97 -3.34 -216.94 -2.68 -220 -2 C-222.10105631 -1.58195267 -224.20382332 -1.17236433 -226.30859375 -0.7734375 C-255.63840494 4.92711789 -283.63867232 13.65041603 -310.18212891 27.57617188 C-316.11324696 30.68318161 -316.11324696 30.68318161 -319 31 C-321.2956543 29.91113281 -321.2956543 29.91113281 -323.82421875 28.203125 C-324.76322021 27.57865479 -325.70222168 26.95418457 -326.66967773 26.31079102 C-327.66555908 25.63072998 -328.66144043 24.95066895 -329.6875 24.25 C-331.75497466 22.86813991 -333.82268531 21.48663283 -335.890625 20.10546875 C-337.43073242 19.067854 -337.43073242 19.067854 -339.00195312 18.00927734 C-343.28060184 15.14174648 -347.60554992 12.34856799 -351.9375 9.5625 C-353.32177706 8.6682202 -354.70590951 7.77371648 -356.08984375 6.87890625 C-357.05019531 6.25886719 -358.01054688 5.63882813 -359 5 C-326.48401558 -29.97351609 -240.25546597 -36.83770707 -195.6875 -38.6875 C-130.59706639 -40.8883036 -58.09058634 -31.24199602 0 0 Z M-150 55 C-150 61.93 -150 68.86 -150 76 C-140.06465196 81.57348793 -132.61935389 85.39823753 -121 84 C-115.43690181 82.30829762 -109.90436897 80.48279401 -106 76 C-116.1397936 64.82491216 -132.47182801 58.28722879 -147 55 C-147.99 55 -148.98 55 -150 55 Z M-220.0625 60 C-220.82111328 60.28617187 -221.57972656 60.57234375 -222.36132812 60.8671875 C-224.24143782 61.57666286 -226.1207897 62.28814582 -228 63 C-229.0004153 76.63013643 -229.0004153 76.63013643 -223.58203125 88.63671875 C-220.13320755 91.60866807 -216.32234005 91.16008667 -212 91 C-210.6378818 89.86492192 -210.6378818 89.86492192 -210.88647461 86.85717773 C-210.88663367 85.46597303 -210.89232494 84.07476239 -210.90234375 82.68359375 C-210.9037587 81.95253922 -210.90517365 81.22148468 -210.90663147 80.46827698 C-210.91224592 78.12464368 -210.92480078 75.78110461 -210.9375 73.4375 C-210.94251314 71.85221492 -210.94707637 70.26692834 -210.95117188 68.68164062 C-210.96222003 64.7877239 -210.97949428 60.89387795 -211 57 C-213.92126772 57 -217.30039649 58.95271225 -220.0625 60 Z M-238.375 68.25 C-239.84066406 69.15492188 -239.84066406 69.15492188 -241.3359375 70.078125 C-243.83343907 71.87984167 -245.33481654 73.43992203 -247 76 C-244.525 78.97 -244.525 78.97 -242 82 C-238.19202609 80.54663682 -237.03932723 78.82091882 -235.3125 75.1875 C-234.89613281 74.33542969 -234.47976563 73.48335937 -234.05078125 72.60546875 C-233.02555438 70.06336345 -232.44096995 67.69912377 -232 65 C-234.20988206 65 -236.59676448 67.13918621 -238.375 68.25 Z M-105 78 C-105.88791631 79.1411908 -106.73616038 80.31346106 -107.5625 81.5 C-108.01753906 82.1496875 -108.47257813 82.799375 -108.94140625 83.46875 C-109.29074219 83.9740625 -109.64007812 84.479375 -110 85 C-109.42055068 86.99863756 -109.42055068 86.99863756 -108 89 C-104.24736275 90.66783878 -101.08773982 91.24045528 -97 91 C-98.41204594 85.73691968 -100.68991307 82.2437012 -104 78 C-104.33 78 -104.66 78 -105 78 Z M-150 79 C-150 82.63 -150 86.26 -150 90 C-148.35 89.01 -146.7 88.02 -145 87 C-145.1957792 84.59855733 -145.1957792 84.59855733 -146 82 C-147.32 81.01 -148.64 80.02 -150 79 Z M-103.125 98.25 C-104.42824219 98.59804687 -104.42824219 98.59804687 -105.7578125 98.953125 C-108.45140315 100.21075966 -108.99300944 101.26189082 -110 104 C-108.02 106.97 -108.02 106.97 -106 110 C-104.35 109.01 -102.7 108.02 -101 107 C-102.485 109.475 -102.485 109.475 -104 112 C-103.01 113.485 -103.01 113.485 -102 115 C-103.32 114.34 -104.64 113.68 -106 113 C-107.80627247 114.57067171 -108.90943569 115.79299586 -109.875 118 C-110.18640322 120.02277275 -110.18640322 120.02277275 -109.0625 121.625 C-104.15682925 124.89544716 -98.70892043 125.10587156 -93 125 C-92.97087652 121.27084983 -92.95315963 117.5417291 -92.9375 113.8125 C-92.92912109 112.75740234 -92.92074219 111.70230469 -92.91210938 110.61523438 C-92.90888672 109.59365234 -92.90566406 108.57207031 -92.90234375 107.51953125 C-92.89710693 106.58214111 -92.89187012 105.64475098 -92.88647461 104.67895508 C-92.99917343 102.01950523 -93.40623351 99.59079427 -94 97 C-97.48597731 97 -99.82645432 97.32443793 -103.125 98.25 Z M-150 99 C-150 102.3 -150 105.6 -150 109 C-146.72226496 108.24849977 -146.72226496 108.24849977 -145 105 C-145.3121764 102.35367713 -145.3121764 102.35367713 -146 100 C-147.32 99.67 -148.64 99.34 -150 99 Z M-212 100 C-215.77227751 104.47957955 -217.34746096 106.91128666 -217.29296875 112.89453125 C-216.8224574 116.27593947 -215.13740472 118.42254136 -213 121 C-212.34 121.33 -211.68 121.66 -211 122 C-211 114.74 -211 107.48 -211 100 C-211.33 100 -211.66 100 -212 100 Z M-144 109 C-144.99 109.495 -144.99 109.495 -146 110 C-146 110.66 -146 111.32 -146 112 C-136.9500998 116.74375813 -128.81456063 119.60013084 -118.6875 116.75 C-114.96388437 115.46128454 -111.45362371 113.90858152 -108 112 C-112.17094371 106.96010968 -116.97061401 105.29933219 -123.28125 104.67578125 C-131.06365235 104.43046639 -137.0747974 105.43724081 -144 109 Z M-150 113 C-150 116.3 -150 119.6 -150 123 C-148.35 122.34 -146.7 121.68 -145 121 C-145.54723683 117.62537285 -146.0549 115.91765 -148 113 C-148.66 113 -149.32 113 -150 113 Z M-150 133 C-150 136.63 -150 140.26 -150 144 C-147.56944242 141.88306276 -146.15492891 140.46478674 -145.125 137.375 C-145.08375 136.59125 -145.0425 135.8075 -145 135 C-145.66 134.34 -146.32 133.68 -147 133 C-147.99 133 -148.98 133 -150 133 Z " fill="#FFFBEA" transform="translate(1000,157)"/>
<path d="M0 0 C-1.45381893 4.7749875 -3.44193506 9.1476652 -5.6953125 13.5859375 C-6.04761932 14.28772125 -6.39992615 14.989505 -6.76290894 15.71255493 C-7.87983696 17.93529034 -9.00231954 20.15516549 -10.125 22.375 C-10.88708856 23.88913684 -11.64881112 25.40345796 -12.41015625 26.91796875 C-14.26921035 30.61412431 -16.13324843 34.3077265 -18 38 C-23.86887651 36.41462182 -29.72768919 34.79884655 -35.57421875 33.1328125 C-62.08123283 25.61883767 -89.11613238 19.37647596 -116.65917969 17.19824219 C-119 17 -119 17 -121.26269531 16.60644531 C-125.15577975 16.14773322 -127.21731347 16.44452504 -130.46582031 18.75 C-133.15383187 21.22838177 -135.64567841 23.81312485 -138.125 26.5 C-138.97964844 27.386875 -139.83429688 28.27375 -140.71484375 29.1875 C-144.46156885 33.1011299 -148.10544918 37.08886596 -151.6484375 41.1875 C-155.08063733 45.15413235 -158.75639575 48.8291987 -162.5 52.5 C-168.17600394 58.08451207 -168.17600394 58.08451207 -173.5 64 C-177.53735225 68.79435579 -182.07976083 73.10305756 -186.52905273 77.50952148 C-190.20201295 81.16059984 -193.71012849 84.85822678 -197.04296875 88.82421875 C-200.61891324 92.79986961 -204.47433571 96.51114307 -208.29125977 100.25415039 C-208.88350342 100.83801514 -209.47574707 101.42187988 -210.0859375 102.0234375 C-210.6226709 102.54856934 -211.1594043 103.07370117 -211.71240234 103.61474609 C-213.11276003 104.9910379 -213.11276003 104.9910379 -214 107 C-213.36835937 106.83395264 -212.73671875 106.66790527 -212.0859375 106.49682617 C-166.07692601 94.55122277 -107.9998669 91.00006655 -64 113 C-64.27263672 112.15236084 -64.27263672 112.15236084 -64.55078125 111.28759766 C-65.37017494 108.73434591 -66.1851383 106.17970153 -67 103.625 C-67.28617188 102.73554688 -67.57234375 101.84609375 -67.8671875 100.9296875 C-68.13789062 100.07890625 -68.40859375 99.228125 -68.6875 98.3515625 C-69.06455078 97.17327881 -69.06455078 97.17327881 -69.44921875 95.97119141 C-70 94 -70 94 -70 92 C-40.3 92.99 -40.3 92.99 -10 94 C-5.37006535 113.57199648 -0.92570212 133.17937886 3.4375 152.8125 C3.7121106 154.04663635 3.98672119 155.28077271 4.26965332 156.55230713 C5.05482154 160.08274947 5.83831903 163.61355753 6.62109375 167.14453125 C6.98155037 168.76599312 6.98155037 168.76599312 7.34928894 170.42021179 C7.67610405 171.89793816 7.67610405 171.89793816 8.00952148 173.40551758 C8.20158676 174.27211502 8.39365204 175.13871246 8.59153748 176.03157043 C9 178 9 178 9 179 C1.7316711 179.28386561 -5.53518502 179.47353855 -12.80786133 179.60424805 C-15.27031823 179.65884833 -17.73243146 179.73335961 -20.19360352 179.82983398 C-37.93621728 180.5068119 -50.14707164 177.97762289 -65.62728882 169.28128052 C-70.63310728 166.57810378 -75.96356931 164.84507126 -81.375 163.125 C-82.4902002 162.7633374 -83.60540039 162.4016748 -84.75439453 162.02905273 C-138.11490152 145.27633542 -194.57201006 150.19638923 -245 174 C-246.38631744 174.74702869 -247.77178102 175.49564484 -249.15625 176.24609375 C-257.42798257 180.42123113 -268.39480927 178.57690679 -277.01953125 176.109375 C-291.69795829 170.64584515 -302.50346424 162.00695166 -309.546875 147.90234375 C-310.81021144 144.96322868 -311.94752811 142.02050877 -313 139 C-313.23460937 138.33742188 -313.46921875 137.67484375 -313.7109375 136.9921875 C-315.80088883 129.99539393 -317.07586578 120.47720541 -315.37109375 113.3828125 C-313.53036932 110.18383273 -311.05967003 107.96221472 -308.3125 105.5625 C-307.13089722 104.50198489 -305.94993303 103.44075796 -304.76953125 102.37890625 C-303.84261475 101.55156982 -303.84261475 101.55156982 -302.89697266 100.70751953 C-299.72253668 97.8501186 -296.61444466 94.92243901 -293.5 92 C-286.16968196 85.14654219 -278.79713599 78.33965546 -271.41601562 71.54101562 C-264.44931264 65.12273699 -257.50675108 58.67969615 -250.58642578 52.21142578 C-246.5706543 48.45999925 -242.54184497 44.72330969 -238.5 41 C-233.56674916 36.45520019 -228.65348675 31.88939867 -223.75 27.3125 C-223.09322266 26.69955078 -222.43644531 26.08660156 -221.75976562 25.45507812 C-218.8486815 22.75999573 -218.8486815 22.75999573 -216 20 C-240.66433616 22.72158192 -265.13678915 28.53180719 -288.57519531 36.64916992 C-289.5184668 36.97248291 -290.46173828 37.2957959 -291.43359375 37.62890625 C-292.65647095 38.0631189 -292.65647095 38.0631189 -293.90405273 38.50610352 C-296 39 -296 39 -299 38 C-300.39925352 35.46431321 -301.61800953 32.98957402 -302.79296875 30.3515625 C-303.14386063 29.5832309 -303.4947525 28.81489929 -303.85627747 28.02328491 C-304.59660472 26.3963705 -305.33179893 24.76711205 -306.06225586 23.13574219 C-307.18220818 20.63680758 -308.31916399 18.14617519 -309.45898438 15.65625 C-310.17550043 14.07598349 -310.89102855 12.49526859 -311.60546875 10.9140625 C-311.94603806 10.16710114 -312.28660736 9.42013977 -312.63749695 8.65054321 C-315 3.34774958 -315 3.34774958 -315 0 C-281.06456167 -12.44299405 -244.79598484 -18.94808325 -209 -23 C-207.9495752 -23.12004395 -206.89915039 -23.24008789 -205.81689453 -23.36376953 C-137.20091187 -30.77902551 -65.2944217 -22.03363239 0 0 Z " fill="#FFFCEB" transform="translate(978,390)"/>
<path d="M0 0 C2 1 2 1 3.0703125 3.6171875 C3.41835937 4.69226563 3.76640625 5.76734375 4.125 6.875 C4.47820312 7.94492187 4.83140625 9.01484375 5.1953125 10.1171875 C6 13 6 13 6 16 C21.18 16 36.36 16 52 16 C52.99 12.7 53.98 9.4 55 6 C55.65629516 3.99657266 56.31760646 1.99468882 57 0 C57.99 0.495 57.99 0.495 59 1 C58.34 5.95 57.68 10.9 57 16 C58.65862061 15.97905273 60.31724121 15.95810547 62.02612305 15.93652344 C67.55803093 15.8715492 73.08988342 15.8258487 78.62207317 15.79275131 C81.97043768 15.77203553 85.31806905 15.74179722 88.66625977 15.69824219 C92.53152161 15.64925098 96.39620105 15.62692261 100.26171875 15.609375 C101.44142746 15.58872986 102.62113617 15.56808472 103.83659363 15.54681396 C121.99728079 15.54200185 137.39699772 23.37168669 150.12109375 35.95703125 C164.94172307 51.26736067 171.43434305 71.91090517 171.20703125 92.90625 C170.54734666 109.8718807 164.65929322 125.7629692 154 139 C153.41863281 139.75539063 152.83726562 140.51078125 152.23828125 141.2890625 C140.66122561 155.41452661 123.93429927 163.12616288 106 165 C97.50852128 165.45825847 88.99929386 165.28575416 80.5 165.1875 C78.21224845 165.17241699 75.92448722 165.15873503 73.63671875 165.14648438 C68.09090203 165.11378619 62.545561 165.06220573 57 165 C57.66 168.96 58.32 172.92 59 177 C56.43470546 175.71735273 56.33500137 174.77227651 55.375 172.125 C55.11460937 171.42632812 54.85421875 170.72765625 54.5859375 170.0078125 C54 168 54 168 54 165 C37.83 165.33 21.66 165.66 5 166 C3.68 169.63 2.36 173.26 1 177 C0.67 177 0.34 177 0 177 C0.33 173.04 0.66 169.08 1 165 C-1.10084961 165.02356567 -1.10084961 165.02356567 -3.24414062 165.04760742 C-8.51475108 165.10252151 -13.78533707 165.13657051 -19.05615234 165.16479492 C-21.32344842 165.17974307 -23.59071629 165.20010898 -25.85791016 165.22631836 C-59.18238817 165.6014946 -59.18238817 165.6014946 -72.375 158.3125 C-73.36729614 157.78487061 -73.36729614 157.78487061 -74.37963867 157.24658203 C-91.97323109 147.6172645 -103.31830839 131.92743844 -109.3125 113.01171875 C-115.44910545 91.62657855 -112.86318392 69.08954519 -102.203125 49.6640625 C-92.70337536 33.34853883 -78.16291307 21.99045628 -60.10546875 16.7265625 C-52.94480396 15.05123715 -46.0647731 14.84287489 -38.75 14.875 C-37.67693604 14.87693359 -36.60387207 14.87886719 -35.49829102 14.88085938 C-22.9889371 14.9458196 -10.49620955 15.45626439 2 16 C1.01 8.08 1.01 8.08 0 0 Z M-41.9609375 53.5234375 C-49.22243932 61.08023982 -49.22243932 61.08023982 -53 70 C-36.23203103 70.52951481 -16.68258318 70.79409557 -3.50390625 58.77734375 C1.07436866 53.36665522 3.16527736 46.23886044 3.0625 39.25 C3.05347656 38.45078125 3.04445312 37.6515625 3.03515625 36.828125 C3.02355469 36.22484375 3.01195312 35.6215625 3 35 C-15.71449558 34.1040933 -29.25264933 40.04658034 -41.9609375 53.5234375 Z M16 35 C18.51428709 40.02857417 21.2952233 43.8634822 26 47 C28.78444577 47.75383338 28.78444577 47.75383338 32 47 C36.9716073 43.64793144 39.90134427 40.16442622 43 35 C34.09 35 25.18 35 16 35 Z M55 35 C55.12545333 36.72450948 55.26008785 38.44835219 55.3984375 40.171875 C55.47239746 41.1319043 55.54635742 42.09193359 55.62255859 43.08105469 C56.57791914 50.46934104 59.48020046 56.5640784 65.05078125 61.5390625 C80.06041222 72.78876587 102.42854165 70.37873708 120 70 C118.95677565 57.86081143 114.58239031 49.07881719 105.5859375 40.7109375 C95.32163544 33.91975275 85.24103381 34.51694468 73.375 34.75 C71.58986381 34.77009777 69.80470575 34.78834274 68.01953125 34.8046875 C63.6791404 34.84841914 59.3398154 34.91726411 55 35 Z M-55 74 C-59.14817308 83.81628744 -62.21427117 93.24748312 -62 104 C-52.14007678 102.17484358 -42.32866146 100.28300449 -32.6875 97.5 C-32.01404541 97.31091064 -31.34059082 97.12182129 -30.64672852 96.92700195 C-25.95410381 95.52162645 -22.09292606 93.63858685 -18 91 C-16.96474868 88.88658874 -16.96474868 88.88658874 -17 87 C-25.73337081 78.84885391 -43.14290209 74 -55 74 Z M103.9375 75.75 C102.85533203 76.00265625 101.77316406 76.2553125 100.65820312 76.515625 C87.53090061 79.46219578 87.53090061 79.46219578 76 86 C76.28759167 89.04539034 76.48166906 90.55304938 78.84375 92.58984375 C86.3355888 96.3908502 93.98594286 98.49932177 102.125 100.5 C103.25228516 100.779646 104.37957031 101.05929199 105.54101562 101.34741211 C106.60255859 101.59370361 107.66410156 101.83999512 108.7578125 102.09375 C110.19858154 102.42922852 110.19858154 102.42922852 111.66845703 102.77148438 C112.43786621 102.84689453 113.20727539 102.92230469 114 103 C119.88429143 97.11570857 120.45561339 85.28681482 121.01953125 77.328125 C121.17040792 74.97440371 121.17040792 74.97440371 120 73 C114.41497831 73 109.34763406 74.44226277 103.9375 75.75 Z M-62 106 C-61.10550346 118.01181073 -58.24691817 129.50660828 -49.1875 138.125 C-38.44678742 145.88114175 -28.11073445 145.50013672 -15.375 145.25 C-13.58986381 145.22990223 -11.80470575 145.21165726 -10.01953125 145.1953125 C-5.6791404 145.15158086 -1.3398154 145.08273589 3 145 C3.03234751 143.11079203 3.05522345 141.22142065 3.07421875 139.33203125 C3.08799561 138.27991455 3.10177246 137.22779785 3.1159668 136.14379883 C2.83632463 128.5628469 0.31881059 121.48766172 -5 116 C-19.06933844 103.21618487 -44.60250277 105.85035896 -62 106 Z M62.2421875 117.890625 C55.74485174 126.11430601 54.82080963 134.78614919 55 145 C70.83390982 145.61601666 82.89137879 142.32849676 95.125 131.875 C102.34541336 125.06849569 108.55550895 116.8889821 113 108 C113 107.34 113 106.68 113 106 C96.64852396 105.53355536 74.28959156 104.93297263 62.2421875 117.890625 Z M21 133 C16.12954491 138.41938133 16.12954491 138.41938133 14 145 C24.23 145 34.46 145 45 145 C39.49441712 134.94985423 39.49441712 134.94985423 30.5 128.875 C26.58066827 129.07096659 23.9129774 130.50580159 21 133 Z " fill="#FF8961" transform="translate(195,320)"/>
<path d="M0 0 C2.40756968 -0.01301256 4.81506831 -0.02252433 7.22265625 -0.0300293 C7.90090454 -0.0340551 8.57915283 -0.0380809 9.2779541 -0.0422287 C32.23134321 -0.09587849 55.97747205 9.8065825 73 25 C74.22396484 26.01126953 74.22396484 26.01126953 75.47265625 27.04296875 C97.05096336 45.35284603 109.75714581 74.12925549 112.83447266 101.97387695 C115.83305938 138.67781679 102.04182481 169.92503326 85.50390625 201.88256836 C78.1668059 216.1901439 70.42323041 232.24369219 75.4375 248.5 C79.98496751 259.57956861 88.1347586 265.53963061 98.6953125 270.31640625 C103.65536105 272.37720731 108.77036629 273.69403725 114.03540039 274.72216797 C115.96484375 275.11328125 115.96484375 275.11328125 119 276 C120.17375798 279.52127394 119.83186646 281.47221189 119.3190918 285.13623047 C119.14528488 286.40119354 118.97147797 287.66615662 118.79240417 288.9694519 C118.59501177 290.35207846 118.39727481 291.73465586 118.19921875 293.1171875 C118.00037277 294.53575785 117.80195869 295.9543888 117.60395813 297.37307739 C117.18716442 300.34784327 116.76539573 303.32184996 116.34008789 306.29541016 C115.79637228 310.09938912 115.2645575 313.90491647 114.7364378 317.71108818 C114.32844313 320.64232437 113.91431397 323.57266867 113.49833107 326.50278091 C113.29995433 327.90509386 113.10342038 329.30766881 112.90878868 330.71050644 C112.63508076 332.67620311 112.35226931 334.64062563 112.0690918 336.60498047 C111.91063278 337.72178192 111.75217377 338.83858337 111.58891296 339.98922729 C111.01461342 342.92529003 110.39367498 345.35119375 109 348 C106.33238953 349.02716598 104.07694605 349.69162677 101.3125 350.25 C100.26932617 350.48976563 100.26932617 350.48976563 99.20507812 350.734375 C75.16990959 356.12040717 48.93897652 354.76513485 27 343 C22.75935114 340.25605074 18.84993454 337.26627099 15 334 C14.26007812 333.37351562 13.52015625 332.74703125 12.7578125 332.1015625 C-2.45678025 318.07098475 -8.0190424 297.45897168 -8.93017578 277.4375 C-9.91033658 243.22097765 1.77580417 214.88010998 25 190 C29.08164336 185.71125423 33.3681721 181.74028376 37.84375 177.8671875 C41.95463688 174.30739777 46.00120131 170.68528341 50 167 C50.91265625 166.16597656 51.8253125 165.33195313 52.765625 164.47265625 C66.36812143 151.53508632 75.57306357 135.56895153 76.203125 116.3828125 C76.43492632 100.97095898 76.11600998 85.19090845 67 72 C63.10176893 68.57788876 59.94283051 65.9149744 54.56640625 66.0703125 C50.86032834 66.40380572 47.539476 66.82017467 44 68 C42.83872987 70.95114106 42.83872987 70.95114106 41.9921875 74.58984375 C41.82123566 75.2495668 41.65028381 75.90928986 41.47415161 76.58900452 C40.92902581 78.70229208 40.40155582 80.8195168 39.875 82.9375 C39.33771935 85.0508519 38.79690063 87.16325989 38.25442505 89.27528381 C37.76361153 91.19360881 37.28174601 93.11421649 36.80029297 95.03491211 C36 98 36 98 35 100 C20.48 100 5.96 100 -9 100 C-9 93.02960881 -8.90336671 86.45279015 -8.17382812 79.58129883 C-8.08604599 78.71162476 -7.99826385 77.84195068 -7.90782166 76.94592285 C-7.62085712 74.11573105 -7.32613653 71.2864076 -7.03125 68.45703125 C-6.82898456 66.47740018 -6.62721025 64.49771888 -6.42590332 62.51799011 C-5.89813737 57.34070649 -5.3637582 52.1641267 -4.82794189 46.9876709 C-4.2809945 41.69206372 -3.74038306 36.39581009 -3.19921875 31.09960938 C-2.13897007 20.73243494 -1.07172529 10.36599386 0 0 Z " fill="#FFFCEB" transform="translate(532,224)"/>
<path d="M0 0 C2.28437557 0.01605322 4.56875372 0.03174299 6.85313416 0.04708862 C11.62134147 0.08191406 16.38938493 0.12521913 21.1574707 0.17382812 C27.24182562 0.2345933 33.32598737 0.26781621 39.41057682 0.29388618 C44.12156751 0.31822346 48.83227656 0.36045017 53.54308891 0.40761948 C55.78553117 0.42735938 58.02803736 0.44091612 60.2705555 0.44794083 C88.66153194 0.55536934 88.66153194 0.55536934 100.40234375 11.1171875 C101.08039063 11.69210938 101.7584375 12.26703125 102.45703125 12.859375 C110.03056407 19.74700296 115.55250797 29.80370984 116.60546875 40.10424805 C116.7054696 42.217516 116.73134143 44.31415885 116.71484375 46.4296875 C116.70747192 47.55117187 116.70747192 47.55117187 116.69995117 48.6953125 C116.41968395 61.96416908 110.83849594 72.24238284 101.85546875 81.8203125 C90.29819125 92.64145767 77.33297107 93.5619795 62.27734375 93.3046875 C60.73308602 93.28960812 59.18881399 93.27592549 57.64453125 93.26367188 C53.89648529 93.23351056 50.15046436 93.17475249 46.40234375 93.1171875 C46.40234375 99.3871875 46.40234375 105.6571875 46.40234375 112.1171875 C78.4502902 106.55096522 108.40931543 99.03130177 134.27734375 78.2421875 C139.75271024 73.91901144 144.38299274 72.51207103 151.40234375 73.1171875 C156.97556903 74.47858604 160.75802967 76.5617949 164.40234375 81.1171875 C169.40588777 89.60292769 170.95911389 98.10676398 168.7890625 107.87890625 C166.31966966 114.98249007 161.80759478 119.65256018 155.26367188 123.3137207 C153.00338329 124.34410158 150.73037641 125.25081649 148.40234375 126.1171875 C147.54423096 126.4469458 146.68611816 126.7767041 145.80200195 127.11645508 C112.13353502 139.7274189 75.07080315 147.15565435 39.09375 147.3203125 C37.53880074 147.33090195 37.53880074 147.33090195 35.95243835 147.34170532 C-9.74284988 147.58210009 -52.97806151 143.06382842 -96.09765625 126.9921875 C-96.94021973 126.67975098 -97.7827832 126.36731445 -98.65087891 126.04541016 C-106.51091146 122.99958796 -113.50813332 119.82436534 -117.59765625 112.1171875 C-120.76369381 104.08738211 -121.2965363 94.11619142 -117.91015625 86.0546875 C-116.7890625 83.98046875 -116.7890625 83.98046875 -115.59765625 82.1171875 C-115.23542969 81.53324219 -114.87320313 80.94929688 -114.5 80.34765625 C-111.36810077 75.98423054 -107.66515285 74.28212925 -102.59765625 73.1171875 C-93.79818354 72.17438685 -88.20909474 75.45303671 -81.59765625 80.7421875 C-57.32044697 100.07331812 -27.56853266 107.06083795 2.40234375 112.1171875 C2.40234375 105.8471875 2.40234375 99.5771875 2.40234375 93.1171875 C0.159375 93.16359375 -2.08359375 93.21 -4.39453125 93.2578125 C-6.6088638 93.28916174 -8.82316999 93.31336133 -11.03759766 93.33691406 C-12.5562681 93.35681632 -14.07486413 93.38394854 -15.59326172 93.41894531 C-30.37879732 93.75076591 -42.29843496 91.49650291 -53.59765625 81.1171875 C-63.48013587 69.85614349 -68.1516015 57.7100732 -67.53515625 42.6796875 C-66.07774483 28.69188828 -59.48630759 17.55147146 -48.74609375 8.68359375 C-34.34562602 -1.81565636 -16.95685008 -0.15959685 0 0 Z M-13.91015625 32.8046875 C-19.19865781 40.05189334 -22.14221351 48.33291166 -21.41015625 57.453125 C-20.24386522 62.88887428 -17.69530353 67.2738005 -13.53515625 70.9296875 C-10.12295457 73.02103692 -7.27664741 73.25658275 -3.36694336 73.31005859 C-1.76398659 73.33415298 -1.76398659 73.33415298 -0.12864685 73.35873413 C4.7735219 73.40335462 9.67555614 73.44427685 14.57788086 73.46728516 C17.15674894 73.48380702 19.73557195 73.51104653 22.31420898 73.54931641 C26.04304641 73.60434577 29.77081004 73.62600361 33.5 73.640625 C34.64203384 73.66329437 35.78406769 73.68596375 36.96070862 73.70932007 C46.28835706 73.68494667 53.14475129 71.20025008 60.15234375 64.9921875 C67.69859302 56.85582869 70.78966087 48.0359421 70.68359375 37.1640625 C70.14793168 31.36105669 68.00228064 27.60284318 63.77734375 23.6796875 C60.22901859 21.34526305 58.33279729 20.97995615 54.1015625 20.92431641 C52.99280762 20.90825348 51.88405273 20.89219055 50.74169922 20.87564087 C45.64373641 20.83112146 40.54586323 20.78964567 35.44775391 20.76708984 C32.76478495 20.75381383 30.08258809 20.72608453 27.39990234 20.68505859 C23.52548457 20.63004464 19.65210058 20.60837208 15.77734375 20.59375 C13.99396606 20.55974594 13.99396606 20.55974594 12.17456055 20.52505493 C0.87737421 20.55344839 -6.76318035 24.04387833 -13.91015625 32.8046875 Z " fill="#FFFCEB" transform="translate(199.59765625,168.8828125)"/>
<path d="M0 0 C1.07048584 0.00193359 2.14097168 0.00386719 3.24389648 0.00585938 C16.10870516 0.07258845 28.96033077 0.58221491 41.8125 1.125 C42.55757544 7.49805598 42.91599817 13.70811325 42.8125 20.125 C41.05486328 20.27195312 41.05486328 20.27195312 39.26171875 20.421875 C20.45908352 22.14486555 7.43607287 27.57648423 -5.1875 42.125 C-7.43722062 45.24230904 -9.54749443 48.4023682 -11.59375 51.65625 C-13.1875 54.125 -13.1875 54.125 -15.1875 56.125 C-17.84287372 56.69020003 -20.47894713 56.86288198 -23.1875 57.125 C-20.8775 57.455 -18.5675 57.785 -16.1875 58.125 C-16.90382017 62.07583805 -17.96648013 65.84471146 -19.125 69.6875 C-23.68126887 85.41076965 -24.02994807 99.45410213 -16.375 114.3125 C-11.53734437 122.27472622 -5.22331285 126.81763117 3.8125 129.125 C10.31703955 129.89717155 16.89647599 129.82288512 23.4375 129.875 C25.22268468 129.90320248 27.00784289 129.93313578 28.79296875 129.96484375 C33.13276453 130.03819995 37.47224754 130.08808335 41.8125 130.125 C41.83972517 132.33326378 41.85899729 134.54162638 41.875 136.75 C41.88660156 137.97976563 41.89820313 139.20953125 41.91015625 140.4765625 C41.82113924 143.80223791 41.44936087 146.86547588 40.8125 150.125 C33.98477525 150.20197948 27.15716509 150.2539834 20.32910156 150.28979492 C18.01330382 150.30474696 15.69753371 150.32511597 13.38183594 150.35131836 C-20.37563117 150.72332156 -20.37563117 150.72332156 -33.5625 143.4375 C-34.55479614 142.90987061 -34.55479614 142.90987061 -35.56713867 142.37158203 C-53.16073109 132.7422645 -64.50580839 117.05243844 -70.5 98.13671875 C-76.63660545 76.75157855 -74.05068392 54.21454519 -63.390625 34.7890625 C-53.89087536 18.47353883 -39.35041307 7.11545628 -21.29296875 1.8515625 C-14.15262812 0.18099224 -7.29386746 -0.03215434 0 0 Z " fill="#FFFBEA" transform="translate(156.1875,334.875)"/>
<path d="M0 0 C7.33762614 -0.09340751 14.67512043 -0.16411846 22.0132246 -0.20724869 C25.42203727 -0.22796765 28.83043799 -0.2559899 32.23901367 -0.30175781 C36.1736121 -0.35424748 40.10805409 -0.3730748 44.04296875 -0.390625 C45.84534248 -0.42159271 45.84534248 -0.42159271 47.68412781 -0.45318604 C65.91883649 -0.45793439 81.3368934 7.31223779 94.12109375 19.95703125 C108.94172307 35.26736067 115.43434305 55.91090517 115.20703125 76.90625 C114.54734666 93.8718807 108.65929322 109.7629692 98 123 C97.41863281 123.75539063 96.83726562 124.51078125 96.23828125 125.2890625 C84.65107322 139.42691381 67.9404478 147.10067534 50 149 C42.64402231 149.41640731 35.27757192 149.35074395 27.9128418 149.28125 C24.51665473 149.24957238 21.12093081 149.24021604 17.72460938 149.234375 C15.56770259 149.22522341 13.41080056 149.21485361 11.25390625 149.203125 C9.72921471 149.19675018 9.72921471 149.19675018 8.17372131 149.19024658 C6.77977394 149.17583527 6.77977394 149.17583527 5.35766602 149.16113281 C4.53766617 149.15430481 3.71766632 149.14747681 2.87281799 149.14044189 C1 149 1 149 0 148 C-1.05873075 141.64761552 -1.10635926 135.42882667 -1 129 C0.34191406 128.94392578 0.34191406 128.94392578 1.7109375 128.88671875 C18.03413903 127.99920992 31.57018289 123.14163846 43 111 C47.50844723 105.58247243 51.51945117 100.24244619 54.4375 93.8125 C55.5390625 91.6484375 55.5390625 91.6484375 57 90 C60.37327941 88.96608464 63.49081218 88.82965108 67 89 C64.69 88.67 62.38 88.34 60 88 C58.71075589 84.13226766 59.60327076 82.59149936 60.875 78.75 C63.185608 71.11702597 63.77697911 63.96184589 64 56 C65.65 55.67 67.3 55.34 69 55 C67.35 54.67 65.7 54.34 64 54 C63.84144531 53.24976563 63.68289063 52.49953125 63.51953125 51.7265625 C61.11215388 41.16602308 57.81601087 31.82061747 49 25 C42.16764858 20.80334969 36.2650523 19.84788556 28.296875 19.68359375 C27.04019012 19.6524221 27.04019012 19.6524221 25.75811768 19.62062073 C23.08882644 19.5553745 20.41943902 19.49635642 17.75 19.4375 C15.93749016 19.39429106 14.12498995 19.35067601 12.3125 19.30664062 C7.87509791 19.19971871 3.43759932 19.09838134 -1 19 C-1.02705308 16.58325776 -1.04686438 14.1668206 -1.0625 11.75 C-1.07087891 11.06808594 -1.07925781 10.38617188 -1.08789062 9.68359375 C-1.10444842 6.27268829 -0.91456587 3.27851294 0 0 Z " fill="#FFFBEA" transform="translate(251,336)"/>
<path d="M0 0 C1.03342529 0.00563965 2.06685059 0.0112793 3.1315918 0.01708984 C35.12774381 0.51560297 63.59554905 12.97814796 86.4375 35.3125 C95.03826628 44.21364943 95.03826628 44.21364943 98.4375 49.3125 C98.15700912 52.95168943 96.55209159 54.37189436 93.875 56.6875 C81.63517813 68.53178005 77.47690981 84.91671852 75.4375 101.3125 C72.64392298 98.61715866 70.22756627 95.83424994 67.875 92.75 C49.52944573 69.75061027 22.42624223 52.56134793 -7.1015625 48.578125 C-15.90796805 47.90223834 -24.73576415 47.58847573 -33.5625 47.3125 C-29.86968184 38.26498633 -25.96106492 29.3242713 -21.94140625 20.41796875 C-21.26482938 18.91475711 -20.59205344 17.40982964 -19.92285156 15.90332031 C-18.94388149 13.69992688 -17.95376258 11.50186642 -16.9609375 9.3046875 C-16.66399994 8.63082001 -16.36706238 7.95695251 -16.06112671 7.26266479 C-12.41591265 -0.71983039 -7.88536623 -0.04438887 0 0 Z " fill="#FFFCEB" transform="translate(566.5625,159.6875)"/>
<path d="M0 0 C-2.05338861 6.51470776 -4.49534683 12.78730029 -7.1875 19.0625 C-7.55552734 19.92810547 -7.92355469 20.79371094 -8.30273438 21.68554688 C-9.19872592 23.79170883 -10.09784655 25.89647192 -11 28 C-19.50346613 27.36156746 -27.77965891 26.09445982 -36.16015625 24.54882812 C-54.90448274 21.25793502 -73.6325433 20.62606701 -92.625 20.6875 C-94.33979553 20.68973572 -94.33979553 20.68973572 -96.0892334 20.6920166 C-112.92012284 20.73143872 -129.36150416 21.26962256 -146 24 C-147.12390137 24.17644043 -148.24780273 24.35288086 -149.40576172 24.53466797 C-156.28633219 25.61746501 -163.13793533 26.79394015 -170 28 C-173.96 19.09 -177.92 10.18 -182 1 C-179.25278154 -1.74721846 -177.11822956 -1.64573807 -173.2890625 -2.21875 C-172.61342758 -2.32161316 -171.93779266 -2.42447632 -171.24168396 -2.53045654 C-169.03738189 -2.86284268 -166.83144354 -3.18216313 -164.625 -3.5 C-163.10733152 -3.7235719 -161.58967204 -3.9472049 -160.07202148 -4.17089844 C-149.07410139 -5.77450813 -138.08395834 -7.14954236 -127 -8 C-125.69933594 -8.11085938 -124.39867187 -8.22171875 -123.05859375 -8.3359375 C-82.62227274 -11.41223839 -39.40474252 -9.77250693 0 0 Z " fill="#FFFCEB" transform="translate(912,338)"/>
<path d="M0 0 C0.33 0 0.66 0 1 0 C0.97643433 1.3003418 0.97643433 1.3003418 0.95239258 2.62695312 C0.90092801 5.87725574 0.86348739 9.12734898 0.83520508 12.37792969 C0.82022086 13.77839031 0.79982621 15.17880483 0.77368164 16.57910156 C0.53694071 27.63812965 0.53694071 27.63812965 4 38 C6.86170359 40.7749853 9.51525821 41.24396406 13.375 41.5 C18.91179779 41.37473308 23.78077397 39.63172564 28.90966797 37.69140625 C33.71137314 35.90379105 33.71137314 35.90379105 37 37 C36.13117188 37.44730469 35.26234375 37.89460938 34.3671875 38.35546875 C24.81170939 43.3683538 16.92353708 47.91686584 12 58 C10.97215254 62.28269777 11.61383481 65.2966277 13.75 69.1875 C14.4925 70.115625 15.235 71.04375 16 72 C16.89332031 73.21236328 16.89332031 73.21236328 17.8046875 74.44921875 C20.13564319 77.15760677 22.33808645 78.76201942 25.375 80.625 C26.33792969 81.21667969 27.30085937 81.80835938 28.29296875 82.41796875 C31.14990101 84.08760448 33.99460975 85.61914502 37 87 C33.25915695 88.24694768 32.23807624 87.52954706 28.625 86.125 C21.65951048 83.69596538 13.48329373 81.34072583 6.30859375 83.99609375 C2.96396909 86.89929587 1.80098798 89.75282894 1 94 C0.65732667 99.34188831 0.71600473 104.65088494 0.8125 110 C0.82757259 111.45701743 0.84125645 112.91404993 0.85351562 114.37109375 C0.88632097 117.91437925 0.93796093 121.45709171 1 125 C0.67 125 0.34 125 0 125 C-0.30292969 123.76765625 -0.60585938 122.5353125 -0.91796875 121.265625 C-3.80056161 105.26765885 -3.80056161 105.26765885 -12.15234375 92.69140625 C-12.76207031 92.46324219 -13.37179687 92.23507812 -14 92 C-17.89977145 96.22053187 -19.44041297 100.38427836 -21.125 105.75 C-21.50205078 106.89082031 -21.50205078 106.89082031 -21.88671875 108.0546875 C-23.40594681 112.74759093 -24.57372831 117.40697504 -25.46826172 122.25878906 C-25.64373535 122.83338867 -25.81920898 123.40798828 -26 124 C-26.99 124.495 -26.99 124.495 -28 125 C-27.9278125 123.98421875 -27.855625 122.9684375 -27.78125 121.921875 C-25.58551221 102.76022443 -25.58551221 102.76022443 -30.9375 84.9375 C-35.65037903 81.95588265 -39.57108895 82.14725738 -45 83 C-48.38139749 83.92992724 -51.68329923 85.06172738 -54.96044922 86.30810547 C-59.71591327 88.09469558 -59.71591327 88.09469558 -63 87 C-62.32195313 86.6596875 -61.64390625 86.319375 -60.9453125 85.96875 C-52.51226449 81.57702417 -41.99826291 76.08696117 -38 67 C-37.17988768 62.66512057 -37.13446107 58.88322337 -39 54.82421875 C-44.30061952 47.06905099 -52.90928016 42.39713035 -61 38 C-57.49577266 36.83192422 -56.48925392 37.25164308 -53.0625 38.375 C-48.24530199 39.92987236 -44.09281465 41.14868282 -39 41.1875 C-38.154375 41.20167969 -37.30875 41.21585938 -36.4375 41.23046875 C-33.74341355 40.97573942 -32.28882523 40.42476728 -30 39 C-25.6839672 32.14560104 -26.65834889 23.16481832 -26.8125 15.4375 C-26.82603516 14.14263672 -26.83957031 12.84777344 -26.85351562 11.51367188 C-26.8886263 8.34200786 -26.93780653 5.1712291 -27 2 C-25.50014766 4.8063815 -24.49223182 7.48442667 -23.66796875 10.5546875 C-23.42626953 11.41707031 -23.18457031 12.27945313 -22.93554688 13.16796875 C-22.43967996 14.96241142 -21.95258682 16.75930332 -21.47460938 18.55859375 C-19.87722485 24.18507677 -18.08910794 27.79287026 -14 32 C-10.96839991 30.9676879 -10.07053994 30.1216814 -8.4375 27.3046875 C-4.68980429 18.36317436 -2.0893859 9.46368907 0 0 Z " fill="#FF8A62" transform="translate(772,206)"/>
<path d="M0 0 C4.36533848 1.67897634 8.45110339 3.72576555 12.59765625 5.87890625 C19.34896288 9.02951601 27.21999386 9.20743939 34.27734375 6.953125 C37.22896007 5.71264348 40.11290667 4.38278781 43 3 C44.66158911 2.32077702 46.32671562 1.64987814 48 1 C46.88793071 3.30968238 45.72622504 5.41573234 44.3125 7.5625 C43.879375 8.366875 43.44625 9.17125 43 10 C43.495 11.485 43.495 11.485 44 13 C46.55459551 13.96556547 46.55459551 13.96556547 49.625 14.5625 C50.70652344 14.81128906 51.78804687 15.06007812 52.90234375 15.31640625 C53.92457031 15.54199219 54.94679688 15.76757812 56 16 C58.43278947 16.55383909 60.64171236 17.16149773 63 18 C63.495 19.485 63.495 19.485 64 21 C62.73542969 21.26554687 61.47085938 21.53109375 60.16796875 21.8046875 C58.50774 22.16112079 56.84758767 22.5179102 55.1875 22.875 C54.35412109 23.04902344 53.52074219 23.22304687 52.66210938 23.40234375 C51.85966797 23.57636719 51.05722656 23.75039062 50.23046875 23.9296875 C49.12288208 24.16534424 49.12288208 24.16534424 47.99291992 24.40576172 C45.71252193 24.9794484 45.71252193 24.9794484 43 27 C44.07401108 29.91517292 44.77810176 31.77810176 47 34 C48.65 33.01 50.3 32.02 52 31 C51.67 31.598125 51.34 32.19625 51 32.8125 C49.79212012 35.05386471 49.79212012 35.05386471 50 38 C50.66 38.99 51.32 39.98 52 41 C50.02 40.34 48.04 39.68 46 39 C45.01 40.65 44.02 42.3 43 44 C44.71341681 47.25539361 44.71341681 47.25539361 47.9765625 47.9140625 C49.18054688 48.14867187 50.38453125 48.38328125 51.625 48.625 C53.51025391 49.00011719 53.51025391 49.00011719 55.43359375 49.3828125 C58.19591538 49.86084844 60.90009262 50.23949464 63.6875 50.5 C67.22474575 51.03392389 67.76245197 51.4582536 70 54 C68.98631348 54.17390259 68.98631348 54.17390259 67.95214844 54.35131836 C64.88449574 54.87848884 61.81724615 55.40796945 58.75 55.9375 C57.15478516 56.21110352 57.15478516 56.21110352 55.52734375 56.49023438 C54.50253906 56.66748047 53.47773437 56.84472656 52.421875 57.02734375 C51.47924805 57.18968506 50.53662109 57.35202637 49.56542969 57.51928711 C47.34780253 57.9348284 45.18042835 58.42348757 43 59 C43.51932433 63.13295614 44.6562841 65.17479278 47.5 68.1875 C50.93377483 71.86754967 50.93377483 71.86754967 52 74 C48.76541703 72.8881121 46.08086489 71.44219429 43.25 69.5625 C35.9921369 64.96857167 28.60116726 62.83178176 20 64 C14.77834831 65.38722354 9.92258373 67.17071404 5.5 70.3125 C4.675 70.869375 3.85 71.42625 3 72 C1.515 71.505 1.515 71.505 0 71 C0.44472656 70.46890625 0.88945313 69.9378125 1.34765625 69.390625 C1.91355469 68.68421875 2.47945312 67.9778125 3.0625 67.25 C3.63097656 66.55390625 4.19945312 65.8578125 4.78515625 65.140625 C6.19744751 63.09574213 6.19744751 63.09574213 5.8984375 60.8359375 C5.02943675 58.57638663 5.02943675 58.57638663 1.5625 57.375 C-6.03247088 55.11135233 -14.14058251 54.72065856 -22 54 C-21.67 53.01 -21.34 52.02 -21 51 C-20.03320312 50.96261719 -19.06640625 50.92523438 -18.0703125 50.88671875 C-9.6397977 50.46101949 -1.69038854 49.84519427 6 46 C5.34414811 42.39007621 5.34414811 42.39007621 4 39 C1.97536745 38.34786708 1.97536745 38.34786708 0 38 C0.3125 36.0625 0.3125 36.0625 1 34 C2.485 33.505 2.485 33.505 4 33 C6.36980013 30.04622502 6.36980013 30.04622502 6 26 C-0.21062458 23.35177807 -5.79277224 22.34381383 -12.5 21.8125 C-13.4178125 21.73064453 -14.335625 21.64878906 -15.28125 21.56445312 C-17.52016424 21.36621593 -19.75942408 21.17828583 -22 21 C-22 20.01 -22 19.02 -22 18 C-21.3294458 17.92483154 -20.6588916 17.84966309 -19.96801758 17.7722168 C-16.91462971 17.42291873 -13.86369992 17.05540113 -10.8125 16.6875 C-9.22985352 16.51057617 -9.22985352 16.51057617 -7.61523438 16.33007812 C-6.59365234 16.20439453 -5.57207031 16.07871094 -4.51953125 15.94921875 C-3.58214111 15.83924561 -2.64475098 15.72927246 -1.67895508 15.6159668 C1.33632959 14.92266841 3.44082692 13.71085084 6 12 C5.55428291 6.94853967 3.24909947 4.66565069 0 1 C0 0.67 0 0.34 0 0 Z M8 34 C7.01 34.495 7.01 34.495 6 35 C6 35.66 6 36.32 6 37 C15.0499002 41.74375813 23.18543937 44.60013084 33.3125 41.75 C37.03611563 40.46128454 40.54637629 38.90858152 44 37 C39.82905629 31.96010968 35.02938599 30.29933219 28.71875 29.67578125 C20.93634765 29.43046639 14.9252026 30.43724081 8 34 Z " fill="#FF8A62" transform="translate(848,232)"/>
<path d="M0 0 C10.89 0 21.78 0 33 0 C34.32 2.92875 35.64 5.8575 37 8.875 C37.41765625 9.79651855 37.8353125 10.71803711 38.265625 11.66748047 C38.59046875 12.39338379 38.9153125 13.11928711 39.25 13.8671875 C39.58515625 14.61081543 39.9203125 15.35444336 40.265625 16.12060547 C41 18 41 18 41 20 C24.83 20 8.66 20 -8 20 C-7 14 -7 14 0 0 Z " fill="#FFFBE9" transform="translate(208,465)"/>
<path d="M0 0 C14.85 0 29.7 0 45 0 C42 9 42 9 37 19 C27.43 19 17.86 19 8 19 C6.68 16.421875 5.36 13.84375 4 11.1875 C3.58234375 10.37949951 3.1646875 9.57149902 2.734375 8.73901367 C2.40953125 8.09681885 2.0846875 7.45462402 1.75 6.79296875 C1.41484375 6.1383667 1.0796875 5.48376465 0.734375 4.80932617 C0 3 0 3 0 0 Z " fill="#FFFBEA" transform="translate(202,336)"/>
<path d="M0 0 C7.26 0.33 14.52 0.66 22 1 C22 1.33 22 1.66 22 2 C14.14663115 3.80241252 6.9692126 4.99230315 -1 3 C-0.67 2.01 -0.34 1.02 0 0 Z " fill="#FFAE8E" transform="translate(827,283)"/>
<path d="M0 0 C5.52 -0.368 5.52 -0.368 7.875 1.4375 C9 3 9 3 9 4 C5.7 3.67 2.4 3.34 -1 3 C-0.67 2.01 -0.34 1.02 0 0 Z " fill="#FFD4BB" transform="translate(827,283)"/>
<path d="M0 0 C0.99 0.99 1.98 1.98 3 3 C-0.3 3.33 -3.6 3.66 -7 4 C-7 3.01 -7 2.02 -7 1 C-4.45132831 -0.27433584 -2.82594567 -0.27570202 0 0 Z " fill="#FFB698" transform="translate(915,283)"/>
</svg>
