<?xml version="1.0" encoding="UTF-8"?>
<svg version="1.1" xmlns="http://www.w3.org/2000/svg" width="917" height="434">
<path d="M0 0 C5.69604112 3.59098245 8.28575438 11.45551752 9.875 17.8125 C9.545 18.4725 9.215 19.1325 8.875 19.8125 C7.1425 20.2765625 7.1425 20.2765625 5.375 20.75 C4.22 21.100625 3.065 21.45125 1.875 21.8125 C1.38 23.2975 1.38 23.2975 0.875 24.8125 C2.855 25.1425 4.835 25.4725 6.875 25.8125 C7.205 25.1525 7.535 24.4925 7.875 23.8125 C7.875 24.4725 7.875 25.1325 7.875 25.8125 C8.865 25.8125 9.855 25.8125 10.875 25.8125 C11.535 24.4925 12.195 23.1725 12.875 21.8125 C15.125 22 15.125 22 17.875 22.8125 C19.24139342 24.4521721 20.5699419 26.12360128 21.875 27.8125 C22.99582434 28.65916586 24.14413451 29.47024852 25.3125 30.25 C28.88840283 32.66989976 31.25246348 35.39525545 33.875 38.8125 C30.21201257 40.03349581 26.94479302 39.83248953 23.14453125 39.69140625 C22.39411057 39.66779526 21.64368988 39.64418427 20.87052917 39.61985779 C18.47598781 39.54334327 16.08177987 39.45926674 13.6875 39.375 C12.0631673 39.32176706 10.43881838 39.26902674 8.81445312 39.21679688 C4.83442466 39.08774473 0.85467856 38.95191046 -3.125 38.8125 C-3.269375 40.070625 -3.41375 41.32875 -3.5625 42.625 C-3.86248686 45.23917123 -4.28313297 47.28689892 -5.125 49.8125 C-4.444375 49.626875 -3.76375 49.44125 -3.0625 49.25 C0.63549312 48.69923507 3.24377967 48.86557404 6.875 49.8125 C8.90625 52.61328125 8.90625 52.61328125 10.375 56.125 C11.13296875 57.85169922 11.13296875 57.85169922 11.90625 59.61328125 C12.83587602 62.68329621 13.07808514 63.91220546 11.875 66.8125 C10.8025 66.4825 9.73 66.1525 8.625 65.8125 C3.08339078 64.39719692 -2.44602129 64.64213064 -8.125 64.8125 C-8.19847656 66.20662109 -8.19847656 66.20662109 -8.2734375 67.62890625 C-8.65781095 73.98432241 -9.03621832 79.79189397 -11.125 85.8125 C-11.393125 87.029375 -11.66125 88.24625 -11.9375 89.5 C-14.21197435 95.84458634 -19.9721354 97.94511433 -25.625 100.95703125 C-28.69323193 102.00694186 -30.10695794 101.99920586 -33.125 100.8125 C-38.17944364 95.03599298 -41.08669425 88.12642063 -43.125 80.8125 C-39.11613032 80.8125 -37.40626636 82.60266755 -34.125 84.8125 C-32.01004383 85.44991533 -32.01004383 85.44991533 -30.125 85.8125 C-27.03802228 78.90426345 -25.20665726 72.29870682 -24.125 64.8125 C-25.61386719 64.84730469 -25.61386719 64.84730469 -27.1328125 64.8828125 C-50.45643766 65.25820823 -50.45643766 65.25820823 -57.125 60.8125 C-57.785 59.8225 -58.445 58.8325 -59.125 57.8125 C-58.856875 59.00875 -58.58875 60.205 -58.3125 61.4375 C-57.98268005 63.98117991 -57.88485809 65.3451699 -59.06640625 67.64453125 C-61.23725513 70.30787121 -62.84723149 71.7199105 -66.125 72.8125 C-69.1875 72.1875 -69.1875 72.1875 -72.125 70.8125 C-73.79342119 67.47889447 -74.48309399 64.3235812 -74.94140625 60.64453125 C-75.06580078 59.66806641 -75.19019531 58.69160156 -75.31835938 57.68554688 C-75.44017578 56.67556641 -75.56199219 55.66558594 -75.6875 54.625 C-75.81318359 53.63435547 -75.93886719 52.64371094 -76.06835938 51.62304688 C-76.76400704 46.06879193 -77.37767372 40.5117519 -77.90185547 34.9387207 C-78.18852465 32.20720882 -78.62755203 29.51293183 -79.125 26.8125 C-70.84633063 30.03915287 -65.99537471 41.27643385 -62.125 48.8125 C-61.14386757 47.52232586 -60.16515801 46.23030894 -59.1875 44.9375 C-58.64222656 44.21820313 -58.09695313 43.49890625 -57.53515625 42.7578125 C-56.08535376 40.86892921 -56.08535376 40.86892921 -55.125 38.8125 C-58.49318523 37.68977159 -60.69654472 38.10922712 -64.125 38.8125 C-65.115 38.4825 -66.105 38.1525 -67.125 37.8125 C-66.795 36.8225 -66.465 35.8325 -66.125 34.8125 C-65.465 34.8125 -64.805 34.8125 -64.125 34.8125 C-63.83882813 34.23886719 -63.55265625 33.66523438 -63.2578125 33.07421875 C-62.52763421 31.61638004 -61.79355035 30.16048773 -61.0546875 28.70703125 C-60.70664062 28.01996094 -60.35859375 27.33289063 -60 26.625 C-59.47019531 25.58279297 -59.47019531 25.58279297 -58.9296875 24.51953125 C-58.05393416 22.97627512 -58.05393416 22.97627512 -58.125 21.8125 C-52.375 21.6875 -52.375 21.6875 -50.125 22.8125 C-50.3725 21.389375 -50.3725 21.389375 -50.625 19.9375 C-51.0550427 16.83233876 -51.28214828 13.75874566 -51.375 10.625 C-51.40078125 9.80644531 -51.4265625 8.98789063 -51.453125 8.14453125 C-51.02091327 5.07274076 -50.50789575 3.83819639 -48.125 1.8125 C-45.32537549 1.67608419 -42.94737729 1.76687247 -40.1875 2.0625 C-38.56806732 2.1920679 -36.94824932 2.31688809 -35.328125 2.4375 C-34.48056641 2.50324219 -33.63300781 2.56898438 -32.75976562 2.63671875 C-28.31990259 2.93292903 -23.88612423 3.02099777 -19.4375 3.0625 C-18.20108765 3.0939209 -18.20108765 3.0939209 -16.93969727 3.12597656 C-10.85364949 3.1632952 -5.64712902 -0.33882774 0 0 Z M-23.125 15.8125 C-23.125 19.10472682 -22.71004415 19.83969653 -20.875 22.4375 C-20.24851562 23.35402344 -20.24851562 23.35402344 -19.609375 24.2890625 C-17.98935773 26.21870186 -17.98935773 26.21870186 -14.125 26.8125 C-13.795 23.5125 -13.465 20.2125 -13.125 16.8125 C-16.59825181 15.6547494 -19.48567448 15.74383348 -23.125 15.8125 Z M-39.125 16.8125 C-38.465 19.1225 -37.805 21.4325 -37.125 23.8125 C-35.475 23.8125 -33.825 23.8125 -32.125 23.8125 C-32.125 21.5025 -32.125 19.1925 -32.125 16.8125 C-34.435 16.8125 -36.745 16.8125 -39.125 16.8125 Z M-39.125 37.8125 C-41.105 42.1025 -43.085 46.3925 -45.125 50.8125 C-42.155 50.8125 -39.185 50.8125 -36.125 50.8125 C-35.795 50.1525 -35.465 49.4925 -35.125 48.8125 C-35.640625 47.884375 -36.15625 46.95625 -36.6875 46 C-38.125 42.8125 -38.125 42.8125 -37.3125 39.9375 C-36.920625 39.23625 -36.52875 38.535 -36.125 37.8125 C-37.115 37.8125 -38.105 37.8125 -39.125 37.8125 Z M-20.125 37.8125 C-21.12984204 39.76835325 -22.12873805 41.72726237 -23.125 43.6875 C-23.681875 44.77804688 -24.23875 45.86859375 -24.8125 46.9921875 C-26.26564094 49.59625082 -26.26564094 49.59625082 -26.125 51.8125 C-24.145 51.8125 -22.165 51.8125 -20.125 51.8125 C-18.39571163 44.90090962 -18.39571163 44.90090962 -18.125 37.8125 C-18.785 37.8125 -19.445 37.8125 -20.125 37.8125 Z " fill="#FEFEFE" transform="translate(440.125,145.1875)"/>
<path d="M0 0 C4.67572791 0.22265371 7.7504564 1.80492794 11.58203125 4.2578125 C15.15041951 8.64211323 14.08496425 15.72800834 13.87890625 21.12109375 C13.84348976 22.23823509 13.84348976 22.23823509 13.80735779 23.37794495 C13.73144815 25.73136 13.64711673 28.08438358 13.5625 30.4375 C13.50920627 32.04360133 13.45646652 33.64972114 13.40429688 35.25585938 C13.27696237 39.17088998 13.13821668 43.08527832 13 47 C18.28 47 23.56 47 29 47 C29.33 47.99 29.66 48.98 30 50 C38.05641741 41.2274566 45.59019597 31.29580777 45.0625 18.8125 C45.01609375 17.93722656 44.9696875 17.06195313 44.921875 16.16015625 C45 14 45 14 46.8125 11.75 C51.60538769 10.62226172 56.17841819 11.12629055 61 12 C62 13 62 13 62.1328125 14.9609375 C62.13023437 15.75757812 62.12765625 16.55421875 62.125 17.375 C62.12886719 18.56222656 62.12886719 18.56222656 62.1328125 19.7734375 C62 22 62 22 61 25 C68.54922814 26.02540318 75.95090843 26.11725965 83.5625 26.0625 C85.36170898 26.05573242 85.36170898 26.05573242 87.19726562 26.04882812 C90.13156359 26.03713769 93.06575449 26.02075138 96 26 C96.6676644 27.26758382 97.32765614 28.53921102 97.984375 29.8125 C98.35272461 30.52019531 98.72107422 31.22789062 99.10058594 31.95703125 C100.18056493 34.41014315 100.33144557 36.3484354 100 39 C93.84561789 41.0514607 87.41927238 40.10196699 81.08349609 39.22973633 C74.278703 38.30307679 67.62161625 37.76712731 60.75 38 C60.04738037 38.00507568 59.34476074 38.01015137 58.62084961 38.01538086 C54.55215394 38.23711218 53.15847781 38.83297455 50.3203125 41.82421875 C49.55460937 42.87222656 48.78890625 43.92023438 48 45 C42.74570798 49.5024721 38.03411569 52.84708444 31 53 C31.15597656 53.71027344 31.31195313 54.42054688 31.47265625 55.15234375 C31.66730469 56.07144531 31.86195313 56.99054688 32.0625 57.9375 C32.25972656 58.85402344 32.45695312 59.77054688 32.66015625 60.71484375 C32.77230469 61.46894531 32.88445312 62.22304687 33 63 C32 64 32 64 30.14233398 64.11352539 C28.95619507 64.10567017 28.95619507 64.10567017 27.74609375 64.09765625 C26.89208984 64.09443359 26.03808594 64.09121094 25.15820312 64.08789062 C24.26037109 64.07951172 23.36253906 64.07113281 22.4375 64.0625 C21.53580078 64.05798828 20.63410156 64.05347656 19.70507812 64.04882812 C17.46998686 64.03700225 15.23502563 64.0205222 13 64 C13.11459252 69.77108449 13.24068385 75.5418408 13.375 81.3125 C13.39512146 82.18181152 13.41524292 83.05112305 13.43597412 83.94677734 C13.77882913 98.2933328 14.44334416 112.5985675 15.42724609 126.9152832 C15.47254456 127.61164383 15.51784302 128.30800446 15.56451416 129.02546692 C15.6859579 130.88779783 15.81554027 132.74959313 15.94580078 134.61132812 C16.00289612 138.18107283 15.59540995 141.48467277 15 145 C13.35 144.67 11.7 144.34 10 144 C10 143.34 10 142.68 10 142 C9.42636719 141.78085938 8.85273438 141.56171875 8.26171875 141.3359375 C5.28084854 139.57521623 3.81952514 137.43408209 1.8125 134.625 C0.77029297 133.19027344 0.77029297 133.19027344 -0.29296875 131.7265625 C-2.95479815 127.47494483 -3.23316968 125.14745948 -2.125 120.3125 C0.22438807 108.42269146 0.1890116 96.07574142 0 84 C-0.73605469 84.88042969 -1.47210938 85.76085937 -2.23046875 86.66796875 C-3.21602369 87.84124844 -4.20170766 89.01441977 -5.1875 90.1875 C-5.67025391 90.76564453 -6.15300781 91.34378906 -6.65039062 91.93945312 C-9.61836968 95.46517321 -12.70366987 98.77222439 -16 102 C-16.61875 102.70125 -17.2375 103.4025 -17.875 104.125 C-20.70276928 106.62009054 -23.48657678 107.64868338 -27 109 C-26.02336063 103.72614742 -22.81720719 99.66049042 -19.75 95.375 C-12.88628525 85.59853235 -7.20651117 75.73178832 -2 65 C-8.27 64.34 -14.54 63.68 -21 63 C-20.67 61.68 -20.34 60.36 -20 59 C-18.515 58.505 -18.515 58.505 -17 58 C-14.92469613 55.07920195 -14 53.62453269 -14 50 C-12.1875 48.25 -12.1875 48.25 -9 47 C-6.2824707 47.09667969 -6.2824707 47.09667969 -3.30078125 47.421875 C-2.30860596 47.5259668 -1.31643066 47.63005859 -0.29418945 47.73730469 C0.46289307 47.82399414 1.21997559 47.91068359 2 48 C1.94465088 47.14470703 1.88930176 46.28941406 1.83227539 45.40820312 C1.75485107 44.21130859 1.67742676 43.01441406 1.59765625 41.78125 C1.55586243 41.13556061 1.5140686 40.48987122 1.4710083 39.82461548 C1.24214322 36.28663252 1.01417308 32.74859523 0.7878418 29.21044922 C0.21876007 20.31091551 0.21876007 20.31091551 -0.390625 11.4140625 C-0.4680896 10.29161133 -0.4680896 10.29161133 -0.54711914 9.14648438 C-0.67766102 7.26668137 -0.813235 5.38722968 -0.94921875 3.5078125 C-0.96597656 2.68023437 -0.98273438 1.85265625 -1 1 C-0.67 0.67 -0.34 0.34 0 0 Z " fill="#FEFEFE" transform="translate(343,98)"/>
<path d="M0 0 C1.92237771 5.99455294 1.30384604 12.79417665 1.35009766 19.03564453 C1.36670067 20.67869183 1.39404793 22.32166563 1.43212891 23.96435547 C1.48687294 26.34119857 1.50875877 28.7163617 1.5234375 31.09375 C1.54610687 31.82613892 1.56877625 32.55852783 1.59213257 33.31311035 C1.57643545 37.09972125 1.32568418 38.66231372 -1.34521484 41.43164062 C-4.76897812 43.45428687 -7.27814454 44.12658779 -11.1875 44.0625 C-12.445625 44.041875 -13.70375 44.02125 -15 44 C-15 45.98 -15 47.96 -15 50 C-13.98035156 50.10699219 -12.96070313 50.21398437 -11.91015625 50.32421875 C-3.64487952 51.75268316 4.26991587 56.04099064 11 61 C11.99 61.66 12.98 62.32 14 63 C14 63.66 14 64.32 14 65 C14.721875 65.20625 15.44375 65.4125 16.1875 65.625 C20.215163 67.59407969 23.17564145 70.64536668 24.6796875 74.94140625 C25.23832744 78.53168975 24.42397748 81.689077 23 85 C20.38070202 87.33613063 18.99833105 88 15.5 88 C9.8593238 85.74372952 6.58038452 80.22792273 3.25 75.375 C-1.98847053 67.89019724 -7.39761835 60.3540162 -14 54 C-14.96066969 57.27094417 -15.17829567 60.31687593 -15.28125 63.71875 C-15.31863281 64.81574219 -15.35601562 65.91273438 -15.39453125 67.04296875 C-15.42933594 68.18378906 -15.46414063 69.32460937 -15.5 70.5 C-15.56896565 72.76054066 -15.64172517 75.02096959 -15.71875 77.28125 C-15.74904297 78.28220703 -15.77933594 79.28316406 -15.81054688 80.31445312 C-15.97738418 82.67941498 -16.33406621 84.7325898 -17 87 C-17.66 87 -18.32 87 -19 87 C-19 87.66 -19 88.32 -19 89 C-22.02749676 92.37349639 -25.01978119 94.83930979 -29 97 C-31.87006183 94.2939417 -34.2267112 91.74914786 -36.375 88.4375 C-39.57421678 83.79053638 -43.67289792 81.77570069 -49 80 C-49 78.68 -49 77.36 -49 76 C-45.83466264 75.02548641 -43.28619234 74.97686755 -40 75.3125 C-39.154375 75.39113281 -38.30875 75.46976562 -37.4375 75.55078125 C-34.95638671 76.00803771 -33.21703622 76.83377098 -31 78 C-31.00785522 77.10244995 -31.00785522 77.10244995 -31.01586914 76.18676758 C-31.10015963 65.07642725 -31.16884409 54.06227438 -30 43 C-30.66386719 43.10699219 -31.32773437 43.21398437 -32.01171875 43.32421875 C-39.28356881 44.31149182 -39.28356881 44.31149182 -42.875 42.75 C-43.926875 41.88375 -43.926875 41.88375 -45 41 C-45.69504639 40.63664551 -46.39009277 40.27329102 -47.10620117 39.89892578 C-49.55007091 37.44843992 -49.46510295 35.56408581 -49.47883606 32.19699097 C-49.45257393 31.04373825 -49.45257393 31.04373825 -49.42578125 29.8671875 C-49.42084908 28.67852585 -49.42084908 28.67852585 -49.41581726 27.46585083 C-49.40540165 25.79306817 -49.38546032 24.12032156 -49.35668945 22.44775391 C-49.31254688 19.87772953 -49.2952463 17.30863805 -49.28320312 14.73828125 C-49.26978212 13.11456975 -49.25485999 11.49086982 -49.23828125 9.8671875 C-49.23089432 9.09430389 -49.22350739 8.32142029 -49.21589661 7.52511597 C-49.11828898 2.11828898 -49.11828898 2.11828898 -48 1 C-37.85898586 -0.13613022 -27.64171204 -0.09446957 -17.45239258 0.03686523 C-16.55673584 0.04532471 -15.6610791 0.05378418 -14.73828125 0.0625 C-13.94462158 0.07410156 -13.15096191 0.08570313 -12.33325195 0.09765625 C-9.93623307 0.05870154 -9.93623307 0.05870154 -7.37963867 -0.53125 C-4.6323483 -1.07242139 -2.68980524 -0.6916642 0 0 Z M-37 11 C-37.91357293 15.56786466 -38.11609566 19.69915093 -38.0625 24.3125 C-38.05798828 25.05306641 -38.05347656 25.79363281 -38.04882812 26.55664062 C-38.03712175 28.37112899 -38.01918898 30.18557534 -38 32 C-36.78183594 31.9278125 -35.56367188 31.855625 -34.30859375 31.78125 C-32.6849019 31.68739498 -31.06120364 31.59365087 -29.4375 31.5 C-28.23770508 31.42845703 -28.23770508 31.42845703 -27.01367188 31.35546875 C-22.33281023 31.08799094 -17.68841621 30.94965459 -13 31 C-11.94248324 24.12614106 -12 18.16062612 -12 11 C-20.25 11 -28.5 11 -37 11 Z " fill="#FEFEFE" transform="translate(291,149)"/>
<path d="M0 0 C3.28078193 0.38597434 4.89972697 0.92077192 7.53125 3 C11.78810874 5.92371723 16.36476774 5.67138009 21.375 5.75 C22.30183594 5.77964844 23.22867188 5.80929688 24.18359375 5.83984375 C26.45581435 5.91011861 28.72703459 5.96302048 31 6 C31.33 4.02 31.66 2.04 32 0 C37.09520028 -0.61760003 39.7649483 1.46595258 44 4 C43.96970703 4.61367432 43.93941406 5.22734863 43.90820312 5.85961914 C43.19009763 20.99369255 42.8909372 36.10078606 42.875 51.25 C42.87250244 52.07090118 42.87000488 52.89180237 42.86743164 53.73757935 C42.84361878 63.26641597 43.06577641 72.68607047 43.88330078 82.18261719 C44 85 44 85 43 87 C41.68 86.34 40.36 85.68 39 85 C39 84.34 39 83.68 39 83 C36.83744464 81.9010791 34.66821936 80.85016358 32.45703125 79.8515625 C31.58433594 79.44679688 30.71164062 79.04203125 29.8125 78.625 C28.49185547 78.02558594 28.49185547 78.02558594 27.14453125 77.4140625 C25 76 25 76 24.19921875 73.8359375 C24.13347656 73.23007812 24.06773437 72.62421875 24 72 C29.75 69 29.75 69 32 69 C32 64.38 32 59.76 32 55 C30.185 55.020625 28.37 55.04125 26.5 55.0625 C22.77294333 55.07129023 19.18734704 54.98222172 15.5 54.4375 C12.36381181 54.04547648 10.85122383 53.86314544 8 55 C6.82798082 57.71272982 5.91338151 60.2508276 5.0625 63.0625 C2.49264977 70.9229784 -0.18839654 78.72650055 -7 84 C-8.32 84 -9.64 84 -11 84 C-10.67 82.02 -10.34 80.04 -10 78 C-9.34 78 -8.68 78 -8 78 C-7.89042969 77.33355469 -7.78085937 76.66710937 -7.66796875 75.98046875 C-6.81027395 70.99468188 -5.80943876 66.16647762 -4.375 61.3125 C-3.04577945 56.6801664 -2.82239415 52.79535793 -3 48 C-2.505 47.505 -2.505 47.505 -2 47 C-1.74716072 44.53403663 -1.56814603 42.0987077 -1.4375 39.625 C-1.39431641 38.85220703 -1.35113281 38.07941406 -1.30664062 37.28320312 C-0.87775754 28.4808883 -0.94749766 19.67582682 -1.03686523 10.86572266 C-1.04532471 9.74472168 -1.05378418 8.6237207 -1.0625 7.46875 C-1.07410156 6.46263672 -1.08570313 5.45652344 -1.09765625 4.41992188 C-1 2 -1 2 0 0 Z M12 17 C12 20.63 12 24.26 12 28 C14.5678125 27.7525 14.5678125 27.7525 17.1875 27.5 C22.40167653 27.46636015 22.40167653 27.46636015 24.87890625 29.67578125 C26.23086928 31.78268659 27.28390246 33.59923708 28 36 C27.67 36.99 27.34 37.98 27 39 C22.05 39 17.1 39 12 39 C12 39.66 12 40.32 12 41 C18.83748144 44.90713225 25.23582356 44.22183361 33 44 C33 35.42 33 26.84 33 18 C26.07 17.67 19.14 17.34 12 17 Z " fill="#FEFEFE" transform="translate(651,203)"/>
<path d="M0 0 C3.96 0 7.92 0 12 0 C12.33 20.46 12.66 40.92 13 62 C10.03 62 7.06 62 4 62 C3.67 51.44 3.34 40.88 3 30 C2.01 32.97 1.02 35.94 0 39 C-0.58666037 40.54087578 -1.18922278 42.07606213 -1.82421875 43.59765625 C-2.13037109 44.33564453 -2.43652344 45.07363281 -2.75195312 45.83398438 C-3.06068359 46.56939453 -3.36941406 47.30480469 -3.6875 48.0625 C-4.00783203 48.83271484 -4.32816406 49.60292969 -4.65820312 50.39648438 C-5.43599036 52.26549549 -6.2175848 54.13292153 -7 56 C-7.66 56 -8.32 56 -9 56 C-9.19634033 55.48091064 -9.39268066 54.96182129 -9.5949707 54.42700195 C-10.49588513 52.05359678 -11.40412125 49.68305783 -12.3125 47.3125 C-12.7755957 46.08756836 -12.7755957 46.08756836 -13.24804688 44.83789062 C-14.86110445 40.64394092 -16.50576005 36.76822097 -19 33 C-19.88438228 40.59621205 -20.06385667 48.07816249 -19.9375 55.71484375 C-19.98851167 58.39614485 -20.18846942 60.47030703 -21 63 C-23.64 63 -26.28 63 -29 63 C-29.17715157 55.50706695 -29.34309386 48.01395658 -29.49477577 40.52046585 C-29.56556111 37.04083763 -29.64018807 33.56138073 -29.72363281 30.08203125 C-29.81942179 26.08091688 -29.89843157 22.07962341 -29.9765625 18.078125 C-30.00875885 16.83009094 -30.0409552 15.58205688 -30.0741272 14.29620361 C-30.09429901 13.13530212 -30.11447083 11.97440063 -30.13525391 10.77832031 C-30.15746002 9.75683899 -30.17966614 8.73535767 -30.20254517 7.68292236 C-30 5 -30 5 -28 1 C-24.37 1 -20.74 1 -17 1 C-16.443125 2.27875 -15.88625 3.5575 -15.3125 4.875 C-13.03886816 10.00085817 -10.54476559 15.00433312 -8 20 C-7.75765625 19.39414062 -7.5153125 18.78828125 -7.265625 18.1640625 C-4.84375 12.109375 -2.421875 6.0546875 0 0 Z " fill="#FEFEFE" transform="translate(383,260)"/>
<path d="M0 0 C0.72916667 1.75 1.45833333 3.5 2.1875 5.25 C2.64382813 6.343125 3.10015625 7.43625 3.5703125 8.5625 C4.48774836 10.76835671 5.39969805 12.9765078 6.3046875 15.1875 C8.65957602 20.92114162 11.14338543 26.49837195 14 32 C15.1555538 21.66192051 15.09776087 11.38437692 15 1 C19.74748444 -0.13035344 22.46331559 0.33527827 27 2 C27.02312851 9.54498233 27.04091769 17.08996101 27.05181217 24.63497066 C27.05703989 28.13808885 27.0641355 31.64118285 27.07543945 35.14428711 C27.08834206 39.16780841 27.09322912 43.19130414 27.09765625 47.21484375 C27.10281754 48.47836166 27.10797882 49.74187958 27.11329651 51.04368591 C27.11337204 52.204814 27.11344757 53.36594208 27.11352539 54.56225586 C27.115746 55.59039902 27.11796661 56.61854218 27.12025452 57.67784119 C27 60 27 60 26 61 C24.48071962 61.07179964 22.95832518 61.08392007 21.4375 61.0625 C20.61121094 61.05347656 19.78492188 61.04445313 18.93359375 61.03515625 C18.29550781 61.02355469 17.65742188 61.01195312 17 61 C15.24713147 57.04293096 13.49823899 53.0841163 11.75 49.125 C11.25886719 48.01640625 10.76773437 46.9078125 10.26171875 45.765625 C9.77832031 44.66992188 9.29492188 43.57421875 8.796875 42.4453125 C8.35698242 41.45031738 7.91708984 40.45532227 7.46386719 39.43017578 C5.56684303 34.98501411 3.79494166 30.48735416 2 26 C1.67 37.22 1.34 48.44 1 60 C-3.62 60 -8.24 60 -13 60 C-12.73893329 52.24020055 -12.47228505 44.48062073 -12.20043945 36.72119141 C-12.10873041 34.08094496 -12.01855267 31.44064487 -11.92993164 28.80029297 C-11.80235942 25.00733571 -11.66929965 21.21460484 -11.53515625 17.421875 C-11.49656998 16.23946228 -11.4579837 15.05704956 -11.41822815 13.83880615 C-11.37826218 12.73796692 -11.3382962 11.63712769 -11.29711914 10.50292969 C-11.26380997 9.53474304 -11.23050079 8.5665564 -11.19618225 7.56903076 C-11.01955605 5.25608895 -10.64586061 3.22169008 -10 1 C-6.58505832 0.2194419 -3.49609808 -0.04700636 0 0 Z M15 33 C16 35 16 35 16 35 Z " fill="#FEFEFE" transform="translate(273,261)"/>
<path d="M0 0 C1.31164842 2.62329684 1.13262846 4.63698625 1.125 7.5625 C1.12886719 9.04943359 1.12886719 9.04943359 1.1328125 10.56640625 C1 13 1 13 0 14 C-1.92478813 14.15806531 -3.8549921 14.251135 -5.78515625 14.31640625 C-7.53989258 14.37924805 -7.53989258 14.37924805 -9.33007812 14.44335938 C-10.56177734 14.48267578 -11.79347656 14.52199219 -13.0625 14.5625 C-14.29806641 14.60568359 -15.53363281 14.64886719 -16.80664062 14.69335938 C-19.87097335 14.79984198 -22.93539073 14.90185424 -26 15 C-25.98839844 15.61488281 -25.97679687 16.22976563 -25.96484375 16.86328125 C-25.95582031 17.67152344 -25.94679688 18.47976563 -25.9375 19.3125 C-25.92589844 20.11300781 -25.91429687 20.91351563 -25.90234375 21.73828125 C-26 24 -26 24 -27 27 C-25.38931641 26.89171875 -25.38931641 26.89171875 -23.74609375 26.78125 C-22.30990358 26.68738136 -20.87370522 26.59363805 -19.4375 26.5 C-18.73302734 26.45230469 -18.02855469 26.40460938 -17.30273438 26.35546875 C-4.57935717 25.5346057 -4.57935717 25.5346057 0 27 C1.24303616 30.59099336 0.68116015 33.31668957 0 37 C-1.22976563 36.9278125 -2.45953125 36.855625 -3.7265625 36.78125 C-5.35936986 36.6874105 -6.99218265 36.59366549 -8.625 36.5 C-9.43324219 36.45230469 -10.24148438 36.40460938 -11.07421875 36.35546875 C-14.54887236 36.15772424 -17.97892337 35.99980969 -21.4609375 36.03125 C-24 36 -24 36 -26 35 C-26 39.95 -26 44.9 -26 50 C-24.30230469 49.96519531 -22.60460937 49.93039062 -20.85546875 49.89453125 C-18.63282237 49.86639649 -16.41016532 49.839096 -14.1875 49.8125 C-13.06794922 49.78736328 -11.94839844 49.76222656 -10.79492188 49.73632812 C-9.72177734 49.72666016 -8.64863281 49.71699219 -7.54296875 49.70703125 C-6.55321045 49.6913208 -5.56345215 49.67561035 -4.54370117 49.65942383 C-2 50 -2 50 -0.1965332 51.1940918 C1.37106092 53.56003624 1.50449537 55.36922874 1.6875 58.1875 C1.78611328 59.53908203 1.78611328 59.53908203 1.88671875 60.91796875 C1.94279297 61.94857422 1.94279297 61.94857422 2 63 C-2.64475959 63.04944066 -7.28936596 63.08573863 -11.93432617 63.10986328 C-13.51443144 63.11992041 -15.0945181 63.13356785 -16.67456055 63.15087891 C-18.9458475 63.17514022 -21.21688836 63.18648582 -23.48828125 63.1953125 C-24.19463211 63.20563507 -24.90098297 63.21595764 -25.6287384 63.22659302 C-29.32197792 63.22743775 -30.83919216 63.10720523 -34 61 C-35.27569309 54.58989444 -35.14572973 48.12150606 -35.1328125 41.60546875 C-35.13376923 40.53629715 -35.13472595 39.46712555 -35.13571167 38.36555481 C-35.13638899 36.1191095 -35.13456613 33.87266219 -35.13037109 31.6262207 C-35.12499002 28.18110812 -35.13034482 24.73612433 -35.13671875 21.29101562 C-35.13605841 19.10416638 -35.13477815 16.91731721 -35.1328125 14.73046875 C-35.13483673 13.69923386 -35.13686096 12.66799896 -35.13894653 11.60551453 C-35.13579437 10.65054581 -35.13264221 9.69557709 -35.12939453 8.71166992 C-35.12859894 7.87198166 -35.12780334 7.0322934 -35.12698364 6.16716003 C-35 4 -35 4 -34 1 C-31.40142672 0.75958082 -28.80265034 0.52292676 -26.203125 0.29296875 C-24.12868329 0.10323323 -22.05553963 -0.10154172 -19.984375 -0.32421875 C-13.32548982 -0.99533676 -6.59567503 -1.42308185 0 0 Z " fill="#FFFFFF" transform="translate(438,259)"/>
<path d="M0 0 C2.62856937 -0.00977163 5.25637649 -0.04091697 7.88476562 -0.07226562 C9.58267774 -0.07879213 11.28059533 -0.08404398 12.97851562 -0.08789062 C13.75063385 -0.10023743 14.52275208 -0.11258423 15.31826782 -0.12530518 C21.52643558 -0.10028409 28.44767835 0.6859596 33.00195312 5.24023438 C35.8952442 14.5341514 35.44939046 24.79223732 35.62695312 34.42773438 C35.66281792 36.12093669 35.6989528 37.8141333 35.73535156 39.50732422 C35.8213314 43.65913538 35.89390539 47.81106211 35.96228027 51.9631958 C35.99898475 54.06986314 36.04221886 56.17624741 36.08886719 58.28271484 C36.16007762 61.64357684 36.21103561 65.00388679 36.25195312 68.36523438 C36.27338379 69.32840576 36.29481445 70.29157715 36.31689453 71.28393555 C36.32124512 72.15896729 36.3255957 73.03399902 36.33007812 73.93554688 C36.33942383 74.67820801 36.34876953 75.42086914 36.35839844 76.18603516 C35.88296458 78.92596699 34.92749283 80.2495954 33.00195312 82.24023438 C25.60251816 85.26037458 16.47377417 84.67774043 8.62695312 84.86523438 C7.31017578 84.89810547 5.99339844 84.93097656 4.63671875 84.96484375 C1.99321864 85.02930759 -0.65022814 85.08769688 -3.29394531 85.14355469 C-6.59833868 85.22980171 -9.89252093 85.37349229 -13.19335938 85.54492188 C-14.9615484 85.61110741 -16.72977515 85.67629648 -18.49804688 85.74023438 C-19.67826416 85.82265381 -19.67826416 85.82265381 -20.88232422 85.90673828 C-23.75552283 85.97467911 -26.19697126 85.74195275 -28.66894531 84.19374084 C-33.25426454 79.66938204 -33.65945338 75.35908406 -33.73583984 69.06216526 C-33.72890789 66.85914108 -33.6924823 64.65776533 -33.65429688 62.45507812 C-33.64817247 60.91004677 -33.64442725 59.36500433 -33.64294434 57.81996155 C-33.6337678 54.59104745 -33.60503613 51.36313927 -33.56054688 48.13452148 C-33.50393607 44.00651424 -33.48211556 39.87929608 -33.47318268 35.75093746 C-33.46284738 31.79805066 -33.43378346 27.84535964 -33.40429688 23.89257812 C-33.40053543 23.14407026 -33.39677399 22.3955624 -33.39289856 21.62437248 C-33.37906993 19.49467649 -33.35176118 17.36558403 -33.3203125 15.23608398 C-33.30665649 14.02697861 -33.29300049 12.81787323 -33.27893066 11.5721283 C-32.98802699 8.1213767 -32.40508514 5.40450718 -30.99804688 2.24023438 C-21.36184345 -0.97183343 -10.06389663 0.0226155 0 0 Z M-25.99804688 6.24023438 C-26.02310303 7.09254639 -26.04815918 7.9448584 -26.07397461 8.82299805 C-26.16940256 12.00068404 -26.26861812 15.17822332 -26.37036133 18.35571289 C-26.41353527 19.72806213 -26.45522188 21.10045904 -26.49536133 22.47290039 C-26.55349079 24.45145506 -26.61750397 26.42983407 -26.68164062 28.40820312 C-26.71829834 29.59696045 -26.75495605 30.78571777 -26.79272461 32.01049805 C-26.97410596 34.86364178 -27.42006571 37.44982183 -27.99804688 40.24023438 C-28.21192238 43.6755423 -28.18819073 47.11131301 -28.18554688 50.55273438 C-28.18546631 51.52299561 -28.18538574 52.49325684 -28.18530273 53.49291992 C-28.7843039 67.14730464 -28.7843039 67.14730464 -24.99804688 79.24023438 C-15.0600811 80.70649162 -5.0162103 80.40523028 5.00195312 80.24023438 C5.77039551 80.2329834 6.53883789 80.22573242 7.33056641 80.21826172 C18.36978472 80.37298563 18.36978472 80.37298563 28.33178711 76.51708984 C30.76426592 73.2010107 30.62440436 69.91615468 30.70898438 65.94726562 C30.73905579 65.1150499 30.7691272 64.28283417 30.80010986 63.42539978 C30.88982619 60.69710599 30.94963219 57.9694894 31.00195312 55.24023438 C31.02184296 54.31762817 31.04173279 53.39502197 31.06222534 52.44445801 C31.17762119 46.70536327 31.23057843 40.96798334 31.2421875 35.2277832 C31.25211865 32.25315611 31.28339067 29.27916027 31.31445312 26.3046875 C31.32096569 24.39909255 31.32622296 22.4934928 31.33007812 20.58789062 C31.34242493 19.70569351 31.35477173 18.8234964 31.36749268 17.91456604 C31.35489438 14.47529599 31.31996595 11.92295885 29.85644531 8.78100586 C24.07733925 3.97953952 15.97415993 4.71741708 8.87695312 4.49023438 C7.64041992 4.44713135 6.40388672 4.40402832 5.12988281 4.35961914 C-5.38680715 4.08154013 -15.59017772 4.78936782 -25.99804688 6.24023438 Z " fill="#FEFEFE" transform="translate(165.998046875,129.759765625)"/>
<path d="M0 0 C2.29418945 0.22949219 2.29418945 0.22949219 4.08398438 1.58837891 C8.63852729 7.48405976 9.02547502 12.05284273 8.60668945 19.35449219 C8.53603914 21.27361148 8.46951512 23.1928879 8.4074707 25.11230469 C8.37274658 26.00304687 8.33802246 26.89378906 8.30224609 27.81152344 C8.29264846 30.69197761 8.81455251 33.39608138 9.29418945 36.22949219 C7.27294042 39.78689049 5.85041656 41.00486201 2.04418945 42.54199219 C1.13668945 42.76886719 0.22918945 42.99574219 -0.70581055 43.22949219 C-1.03581055 42.89949219 -1.36581055 42.56949219 -1.70581055 42.22949219 C-4.03569384 42.16604633 -6.36746814 42.17033866 -8.69799805 42.20214844 C-10.13940187 42.21479777 -11.58080825 42.22715851 -13.0222168 42.23925781 C-15.30240766 42.2640692 -17.58246731 42.29201647 -19.86254883 42.32543945 C-22.05770713 42.35564369 -24.25269819 42.37342035 -26.44799805 42.38964844 C-27.76654785 42.40648682 -29.08509766 42.4233252 -30.44360352 42.44067383 C-33.70581055 42.22949219 -33.70581055 42.22949219 -36.70581055 40.22949219 C-37.01464844 37.12841797 -37.01464844 37.12841797 -36.9284668 33.17480469 C-36.91947861 32.47684784 -36.91049042 31.77889099 -36.90122986 31.05978394 C-36.87115574 28.82418618 -36.82139143 26.58965374 -36.76831055 24.35449219 C-36.72044161 22.12654211 -36.67707632 19.89887558 -36.64610291 17.67062378 C-36.61729599 15.64334612 -36.5722244 13.61631912 -36.52636719 11.58935547 C-36.69361475 8.45784403 -37.03264146 6.82489663 -38.70581055 4.22949219 C-34.01604097 2.76314713 -29.78734288 1.91214816 -24.85424805 1.59667969 C-23.5909668 1.51289063 -22.32768555 1.42910156 -21.02612305 1.34277344 C-19.07319336 1.22482422 -19.07319336 1.22482422 -17.08081055 1.10449219 C-15.77112305 1.018125 -14.46143555 0.93175781 -13.11206055 0.84277344 C-8.74191755 0.56126116 -4.36302852 0.37004844 0 0 Z M-24.70581055 14.22949219 C-25.53786874 19.9498923 -25.82617719 25.45189335 -25.70581055 31.22949219 C-23.56128715 31.57115168 -21.41509839 31.90236261 -19.26831055 32.22949219 C-18.07334961 32.41511719 -16.87838867 32.60074219 -15.6472168 32.79199219 C-11.35729799 33.26817743 -7.02207696 33.22949219 -2.70581055 33.22949219 C-2.70581055 26.62949219 -2.70581055 20.02949219 -2.70581055 13.22949219 C-13.75060154 13.10522612 -13.75060154 13.10522612 -24.70581055 14.22949219 Z " fill="#FFFFFF" transform="translate(752.705810546875,247.7705078125)"/>
<path d="M0 0 C0 4.95 0 9.9 0 15 C1.98 15 3.96 15 6 15 C5.97679687 14.26394531 5.95359375 13.52789062 5.9296875 12.76953125 C5.91164063 11.79371094 5.89359375 10.81789062 5.875 9.8125 C5.85179687 8.84957031 5.82859375 7.88664063 5.8046875 6.89453125 C6.0086456 3.87187222 6.73125368 1.73230015 8 -1 C11.65316671 0.24976756 12.78065836 0.67098753 15 4 C14.7578125 6.69921875 14.7578125 6.69921875 14.125 9.6875 C13.92132812 10.68136719 13.71765625 11.67523438 13.5078125 12.69921875 C13.34023438 13.45847656 13.17265625 14.21773437 13 15 C13.78632812 15.11730469 14.57265625 15.23460937 15.3828125 15.35546875 C18 16 18 16 19.875 18.3125 C21.07817396 21.18674892 21.15154588 22.17347829 20 25 C18.35 25.33 16.7 25.66 15 26 C14.83060951 28.20812607 14.66460778 30.41651224 14.5 32.625 C14.36078125 34.46964844 14.36078125 34.46964844 14.21875 36.3515625 C14.02515931 39.58037857 13.96020661 42.76678675 14 46 C14.7425 46 15.485 46 16.25 46 C19.56830714 47.20665714 19.80059811 47.98992519 21.3125 51.0625 C21.89266121 52.36728944 22.46085342 53.67773548 23 55 C21.03436299 56.96563701 17.25785746 56.21105353 14.5703125 56.23828125 C13.82417694 56.246353 13.07804138 56.25442474 12.30929565 56.26274109 C10.72721694 56.27659541 9.14510816 56.28731152 7.56298828 56.29516602 C5.14167705 56.31238143 2.72173031 56.35625232 0.30078125 56.40039062 C-1.23436493 56.41051702 -2.76952275 56.4190333 -4.3046875 56.42578125 C-5.02977509 56.44328934 -5.75486267 56.46079742 -6.50192261 56.47883606 C-11.52233128 56.45714906 -11.52233128 56.45714906 -13.93798828 54.14526367 C-15.11631081 51.76505216 -15.63555276 49.62402014 -16 47 C-12.535 46.505 -12.535 46.505 -9 46 C-8.96241577 45.15236084 -8.96241577 45.15236084 -8.92407227 44.28759766 C-8.80820044 41.73316258 -8.68543463 39.1791045 -8.5625 36.625 C-8.52318359 35.73554688 -8.48386719 34.84609375 -8.44335938 33.9296875 C-8.40146484 33.07890625 -8.35957031 32.228125 -8.31640625 31.3515625 C-8.26141968 30.17327881 -8.26141968 30.17327881 -8.20532227 28.97119141 C-8 27 -8 27 -7 25 C-9.97 24.67 -12.94 24.34 -16 24 C-14.54955729 19.89041233 -12.48889248 16.56741255 -10 13 C-9.01 13.33 -8.02 13.66 -7 14 C-7 11.36 -7 8.72 -7 6 C-7.66 5.67 -8.32 5.34 -9 5 C-6.5571003 0.23634558 -6.5571003 0.23634558 -3.9375 -0.875 C-2 -1 -2 -1 0 0 Z M0 26 C-0.33 27.32 -0.66 28.64 -1 30 C1.31 30 3.62 30 6 30 C5.67 28.68 5.34 27.36 5 26 C3.35 26 1.7 26 0 26 Z M-1 37 C-1 37.33 -1 37.66 -1 38 C0.98 38 2.96 38 5 38 C5 37.67 5 37.34 5 37 C3.02 37 1.04 37 -1 37 Z M-2 44 C-2 45.32 -2 46.64 -2 48 C0.64 48 3.28 48 6 48 C5.67 46.68 5.34 45.36 5 44 C2.69 44 0.38 44 -2 44 Z " fill="#FEFEFE" transform="translate(610,203)"/>
<path d="M0 0 C1.24040039 0.15662109 1.24040039 0.15662109 2.50585938 0.31640625 C4.52638004 0.57335107 6.54471061 0.84742051 8.5625 1.125 C9.09173572 3.24792296 9.61065377 5.37342051 10.125 7.5 C10.41503906 8.68335938 10.70507812 9.86671875 11.00390625 11.0859375 C11.5625 14.125 11.5625 14.125 10.5625 16.125 C6.04632401 16.20154536 1.97164783 16.22728696 -2.4375 15.125 C-2.7675 18.095 -3.0975 21.065 -3.4375 24.125 C-2.303125 24.104375 -1.16875 24.08375 0 24.0625 C3.5625 24.125 3.5625 24.125 4.5625 25.125 C4.6953125 26.9375 4.6953125 26.9375 4.6875 29.125 C4.69136719 30.2078125 4.69136719 30.2078125 4.6953125 31.3125 C4.5625 33.125 4.5625 33.125 3.5625 34.125 C1.56291636 34.16580783 -0.43795254 34.16754356 -2.4375 34.125 C-2.1075 37.095 -1.7775 40.065 -1.4375 43.125 C-0.550625 42.63 0.33625 42.135 1.25 41.625 C4.43836238 40.18121326 6.14437546 39.82340078 9.5625 40.125 C7.54786192 49.07894703 -0.38078327 55.74152538 -7.4375 61.125 C-8.15035156 61.475625 -8.86320313 61.82625 -9.59765625 62.1875 C-11.96561164 63.39410147 -12.47048918 64.70747296 -13.4375 67.125 C-16.71191838 66.8521318 -18.11731093 66.45519498 -20.4375 64.0625 C-22.87740691 60.47888673 -25.19228991 56.83327732 -27.4375 53.125 C-25.85934465 51.54684465 -23.98238353 51.62366574 -21.8125 51.25 C-17.31411766 50.39685852 -13.55886466 49.09608745 -9.4375 47.125 C-9.7675 43.165 -10.0975 39.205 -10.4375 35.125 C-12.7475 34.795 -15.0575 34.465 -17.4375 34.125 C-16.96949289 30.06893835 -16.55796792 26.65911321 -14.4375 23.125 C-12.4575 23.125 -10.4775 23.125 -8.4375 23.125 C-8.4375 20.485 -8.4375 17.845 -8.4375 15.125 C-13.7175 15.455 -18.9975 15.785 -24.4375 16.125 C-23.7775 14.475 -23.1175 12.825 -22.4375 11.125 C-21.4475 10.795 -20.4575 10.465 -19.4375 10.125 C-18.64010858 7.86129436 -18.16907248 5.60052768 -17.671875 3.25390625 C-16.4375 1.125 -16.4375 1.125 -13.41796875 -0.21484375 C-8.87089582 -1.24677441 -4.56779483 -0.64044827 0 0 Z " fill="#FFFFFF" transform="translate(581.4375,210.875)"/>
<path d="M0 0 C0.19406478 1.64507218 0.38007935 3.29109594 0.5625 4.9375 C0.71912109 6.31228516 0.71912109 6.31228516 0.87890625 7.71484375 C0.93884766 8.84599609 0.93884766 8.84599609 1 10 C-0.79858663 11.79858663 -3.62990899 11.2576994 -6.0625 11.375 C-12.73699952 11.85802299 -18.20304444 12.42982462 -23.3125 17.125 C-28.13511893 25.34131372 -28.75119863 32.61688844 -27 42 C-25.3979549 46.84391938 -23.4984216 50.37784314 -19 53 C-15.73124959 53.57614258 -15.73124959 53.57614258 -12.25 53.6875 C-11.07953125 53.75324219 -9.9090625 53.81898438 -8.703125 53.88671875 C-7.81109375 53.92410156 -6.9190625 53.96148437 -6 54 C-6.08378906 53.04738281 -6.16757812 52.09476562 -6.25390625 51.11328125 C-6.40666016 49.23189453 -6.40666016 49.23189453 -6.5625 47.3125 C-6.71912109 45.45044922 -6.71912109 45.45044922 -6.87890625 43.55078125 C-6.98493841 40.44164467 -6.77228525 37.99189028 -6 35 C-3.03 35.33 -0.06 35.66 3 36 C3 44.25 3 52.5 3 61 C-1.22973247 60.886088 -5.45840857 60.75932794 -9.6875 60.625 C-10.88568359 60.5940625 -12.08386719 60.563125 -13.31835938 60.53125 C-14.47529297 60.49257813 -15.63222656 60.45390625 -16.82421875 60.4140625 C-17.88729248 60.3826416 -18.95036621 60.3512207 -20.0456543 60.31884766 C-25.38195442 59.74292765 -29.17129368 57.73053436 -33 54 C-38.4444616 45.97862242 -40.98677597 35.36746984 -39.69921875 25.80078125 C-37.55562987 17.21445038 -33.48929875 9.84791166 -26 5 C-25.45214844 4.60167969 -24.90429688 4.20335937 -24.33984375 3.79296875 C-17.28318435 -0.59611831 -8.05427017 0 0 0 Z " fill="#FEFEFE" transform="translate(343,261)"/>
<path d="M0 0 C1.93359375 0.57421875 1.93359375 0.57421875 4 2 C4.78515625 5.08203125 4.78515625 5.08203125 5.0625 8.8125 C5.17722656 10.03582031 5.29195313 11.25914062 5.41015625 12.51953125 C4.87561872 17.05546399 3.53359245 18.18976869 0 21 C-3.21948242 21.53588867 -3.21948242 21.53588867 -6.85546875 21.41796875 C-7.51026718 21.40547089 -8.16506561 21.39297302 -8.83970642 21.38009644 C-10.23529196 21.35173863 -11.63069228 21.31249227 -13.0256958 21.26321411 C-16.65295264 21.13617461 -20.28113564 21.08825889 -23.91015625 21.0390625 C-24.9745694 21.02230217 -24.9745694 21.02230217 -26.06048584 21.00520325 C-31.49586625 20.94337077 -36.74974256 21.29895527 -42.125 22.0625 C-60.5042807 24.59385565 -60.5042807 24.59385565 -65.7109375 20.73046875 C-67.20651737 18.72276607 -68.47219467 16.68973934 -69.6875 14.5 C-70.34298828 13.33984375 -70.34298828 13.33984375 -71.01171875 12.15625 C-72 10 -72 10 -72 7 C-70.60430786 7.00785522 -70.60430786 7.00785522 -69.18041992 7.01586914 C-33.31706749 9.56452449 -33.31706749 9.56452449 0 0 Z " fill="#FEFEFE" transform="translate(299,121)"/>
<path d="M0 0 C2.03144641 0.93446535 4.03533587 1.93224776 6 3 C6 3.66 6 4.32 6 5 C5.34 5 4.68 5 4 5 C3.85304688 5.69222656 3.70609375 6.38445312 3.5546875 7.09765625 C1.55880926 15.80381478 -1.53819483 23.79921882 -5 32 C-4.05640625 31.855625 -3.1128125 31.71125 -2.140625 31.5625 C5.97707324 30.38885688 13.7752689 29.72431069 22 30 C21.649375 29.4225 21.29875 28.845 20.9375 28.25 C19.85082593 25.64198224 20.06934867 24.60582371 21 22 C27.33452231 26.34367244 34.48858443 31.4657533 37 39 C37.12781786 41.67394964 37.04391871 44.32095857 37 47 C34.20315672 48.90185343 32.89614391 48.99271185 29.4375 48.75 C26 48 26 48 23 46 C22.70703125 43.6171875 22.70703125 43.6171875 22.8125 40.875 C22.85310547 39.50988281 22.85310547 39.50988281 22.89453125 38.1171875 C22.92933594 37.41851562 22.96414063 36.71984375 23 36 C20.02069594 36.6243506 17.04155539 37.24946491 14.0625 37.875 C13.23169922 38.04902344 12.40089844 38.22304687 11.54492188 38.40234375 C1.12673002 40.56468648 1.12673002 40.56468648 -9.203125 43.10546875 C-9.8734375 43.28400391 -10.54375 43.46253906 -11.234375 43.64648438 C-12.59565211 44.01186592 -13.95501348 44.38444979 -15.3125 44.76367188 C-19.22226901 45.79036509 -22.10304542 46.1857013 -26 45 C-27.10228696 40.59085217 -27.07654536 36.51617599 -27 32 C-26.35933594 31.731875 -25.71867188 31.46375 -25.05859375 31.1875 C-14.84858514 26.5618031 -9.99969666 20.26761957 -6 10 C-5.30220391 8.32889423 -4.59408326 6.66205691 -3.875 5 C-3.56304688 4.2575 -3.25109375 3.515 -2.9296875 2.75 C-2 1 -2 1 0 0 Z " fill="#FEFEFE" transform="translate(735,202)"/>
<path d="M0 0 C6.93 0 13.86 0 21 0 C21.09288611 4.85329927 21.1721853 9.70339756 21.21972656 14.55688477 C21.23958568 16.20054693 21.26668256 17.84414096 21.30175781 19.48754883 C21.54346408 31.12144017 21.66799425 44.60459432 15 54.75 C9.43396693 58.9245248 2.93417721 60.09314848 -3.9375 59.875 C-7.09761335 58.97211047 -9.38903704 57.99661873 -12 56 C-12.495 54.515 -12.495 54.515 -13 53 C-12.030625 53.04125 -11.06125 53.0825 -10.0625 53.125 C-5.55110276 53.14348933 -1.35162348 52.10517422 3 51 C5.32719435 38.25691639 6.13008953 25.96907996 5.96337891 13.03344727 C5.95483887 12.15358154 5.94629883 11.27371582 5.9375 10.3671875 C5.92589844 9.57425293 5.91429687 8.78131836 5.90234375 7.96435547 C6 6 6 6 7 4 C4.36 4 1.72 4 -1 4 C-0.67 2.68 -0.34 1.36 0 0 Z " fill="#FFFFFF" transform="translate(216,261)"/>
<path d="M0 0 C1.64574566 -0.02688151 3.29161413 -0.04634123 4.9375 -0.0625 C5.85402344 -0.07410156 6.77054688 -0.08570313 7.71484375 -0.09765625 C10 0 10 0 11 1 C11.26075596 3.40474939 11.43611015 5.77363547 11.5625 8.1875 C11.6049585 8.97745361 11.64741699 9.76740723 11.69116211 10.58129883 C12.40045496 26.3641352 12.07865218 42.20543285 12 58 C7.53528177 60.0091232 4.82724269 60.02114749 0 59 C-1.97066519 57.02933481 -1.25530137 53.21921076 -1.31640625 50.51953125 C-1.33718735 49.75509201 -1.35796844 48.99065277 -1.37937927 48.20304871 C-1.42275728 46.57300616 -1.46378465 44.94289968 -1.50268555 43.31274414 C-1.56117607 40.86784025 -1.62656187 38.42320508 -1.69335938 35.97851562 C-2.44326824 7.63521324 -2.44326824 7.63521324 0 0 Z " fill="#FEFEFE" transform="translate(245,261)"/>
<path d="M0 0 C0.20638953 45.60255972 0.20638953 45.60255972 -1 64 C-2.64630328 63.85957123 -4.29204179 63.71250671 -5.9375 63.5625 C-6.85402344 63.48128906 -7.77054687 63.40007812 -8.71484375 63.31640625 C-11 63 -11 63 -12 62 C-12.09391296 60.09756238 -12.11743658 58.19161541 -12.11352539 56.28686523 C-12.11344986 55.0656749 -12.11337433 53.84448456 -12.11329651 52.58628845 C-12.10818911 51.24372314 -12.10297311 49.90115825 -12.09765625 48.55859375 C-12.09579199 47.19238842 -12.09436813 45.82618243 -12.09336853 44.4599762 C-12.08954394 40.85798305 -12.07971417 37.25603 -12.06866455 33.65405273 C-12.05844916 29.98096255 -12.05387064 26.30786591 -12.04882812 22.63476562 C-12.03809184 15.42315877 -12.02101614 8.211585 -12 1 C-10.37512529 0.83211627 -8.75009558 0.66573213 -7.125 0.5 C-6.22007812 0.4071875 -5.31515625 0.314375 -4.3828125 0.21875 C-2 0 -2 0 0 0 Z " fill="#FEFEFE" transform="translate(462,258)"/>
<path d="M0 0 C2.4375 0.375 2.4375 0.375 5 1 C5.33 1.66 5.66 2.32 6 3 C6.9075 2.79375 7.815 2.5875 8.75 2.375 C12.11027897 1.9872755 13.24075815 2.19588033 16 4 C16.99 3.34 17.98 2.68 19 2 C23.07490752 1.66042437 24.53001271 1.68667514 28 4 C28.73046875 7.16015625 28.73046875 7.16015625 29.1875 11.0625 C29.30810791 12.07098999 29.30810791 12.07098999 29.43115234 13.09985352 C29.99471482 18.10282229 30.17634287 22.9742283 30 28 C28.02 28.99 28.02 28.99 26 30 C23.07526064 27.55761295 23.07526064 27.55761295 22.7421875 25.08984375 C22.78601563 24.37957031 22.82984375 23.66929687 22.875 22.9375 C23.05773521 17.8873634 22.58600593 13.01244359 22 8 C20.02 8.99 20.02 8.99 18 10 C18 16.27 18 22.54 18 29 C16.35 29 14.7 29 13 29 C12 28 12 28 11.88647461 26.14233398 C11.89171143 25.35157471 11.89694824 24.56081543 11.90234375 23.74609375 C11.90556641 22.89208984 11.90878906 22.03808594 11.91210938 21.15820312 C11.92048828 20.26037109 11.92886719 19.36253906 11.9375 18.4375 C11.94201172 17.53580078 11.94652344 16.63410156 11.95117188 15.70507812 C11.96299775 13.46998686 11.9794778 11.23502563 12 9 C10.02 9.99 8.04 10.98 6 12 C6.33 17.61 6.66 23.22 7 29 C4.69 29 2.38 29 0 29 C-1.17818227 22.77745217 -0.91929158 16.86581791 -0.5625 10.5625 C-0.51029297 9.54478516 -0.45808594 8.52707031 -0.40429688 7.47851562 C-0.27553907 4.98529631 -0.1406198 2.49257367 0 0 Z " fill="#FEFEFE" transform="translate(689,310)"/>
<path d="M0 0 C3.87775523 1.21655066 6.77172473 2.78979247 10.1875 5 C10.6825 5.99 10.6825 5.99 11.1875 7 C9.89784824 8.37562854 8.56060707 9.70766393 7.1875 11 C6.5275 11 5.8675 11 5.1875 11 C5.1875 11.66 5.1875 12.32 5.1875 13 C3.5703125 14.2265625 3.5703125 14.2265625 1.3125 15.625 C-2.21395057 17.8770946 -5.38463194 20.28057848 -8.5625 23 C-16.11484416 29.1598807 -26.88733507 35 -36.8125 35 C-36.8125 33.68 -36.8125 32.36 -36.8125 31 C-36.1525 31 -35.4925 31 -34.8125 31 C-34.8125 30.34 -34.8125 29.68 -34.8125 29 C-33.24642428 27.96099812 -31.6313487 26.99567709 -30 26.0625 C-22.49568595 21.44520832 -15.72337712 15.36631568 -10.8125 8 C-10.1525 8 -9.4925 8 -8.8125 8 C-8.565 7.4225 -8.3175 6.845 -8.0625 6.25 C-5.98120133 2.5036624 -4.52946666 0 0 0 Z " fill="#FEFEFE" transform="translate(245.8125,195)"/>
<path d="M0 0 C1.65 0 3.3 0 5 0 C6.73956658 1.73956658 6.37190386 4.1936622 6.5625 6.5625 C6.64628906 7.57441406 6.73007812 8.58632813 6.81640625 9.62890625 C6.87699219 10.41136719 6.93757812 11.19382812 7 12 C7.38671875 11.278125 7.7734375 10.55625 8.171875 9.8125 C8.95304688 8.4203125 8.95304688 8.4203125 9.75 7 C10.26046875 6.071875 10.7709375 5.14375 11.296875 4.1875 C11.85890625 3.465625 12.4209375 2.74375 13 2 C14.32 2 15.64 2 17 2 C16.26060778 3.89999557 15.50797656 5.79484167 14.75 7.6875 C14.12351562 9.27111328 14.12351562 9.27111328 13.484375 10.88671875 C11.9908349 14.01922259 10.26776415 16.38819471 8 19 C10.95308491 24.2909438 14.10829912 29.44177633 17.35742188 34.55541992 C20 38.77967347 20 38.77967347 20 41 C17.80078125 40.91015625 17.80078125 40.91015625 15 40 C13.18007335 37.82129607 11.69145495 35.81229742 10.1875 33.4375 C9.78080078 32.82197266 9.37410156 32.20644531 8.95507812 31.57226562 C7.9566127 30.05694751 6.97646735 28.52958612 6 27 C5.67 31.62 5.34 36.24 5 41 C3.35 41 1.7 41 0 41 C0 27.47 0 13.94 0 0 Z " fill="#FEFEFE" transform="translate(731,299)"/>
<path d="M0 0 C1.125 4.75 1.125 4.75 0 7 C-1.74260087 7.26314443 -3.49530966 7.46079101 -5.25 7.625 C-8.48979057 8.15652814 -10.42238991 8.47774421 -12.875 10.6953125 C-15.0616572 13.9628741 -15.98490711 16.2302624 -16.0625 20.1875 C-14.78973752 23.55657715 -13.66209112 25.54807397 -11 28 C-6.39862196 29.21868737 -6.39862196 29.21868737 -2 28 C-1.34444881 25.47266765 -1.34444881 25.47266765 -1 23 C-3.97 23 -6.94 23 -10 23 C-9.375 20.5625 -9.375 20.5625 -8 18 C-4.37536784 16.89685108 -1.58521821 16.75896293 2 18 C3.19354869 21.72983966 3.40965996 25.10823039 3 29 C0.66352534 32.16111278 -1.05618101 33.65679309 -4.75 35 C-9.27492243 35 -12.97758184 34.08768091 -17 32 C-21.19677606 27.59338514 -22.08544892 22.91733798 -22 17 C-20.99595827 11.97979133 -18.62597353 7.61721514 -15 4 C-10.21146171 0.98728495 -5.71449833 -0.58610239 0 0 Z " fill="#FFFFFF" transform="translate(175,140)"/>
<path d="M0 0 C2.50187919 1.91320174 3.93431075 3.55312567 4.49609375 6.7109375 C4.61870787 10.93751837 4.55623723 13.01081364 2.0625 16.5625 C-2.47059215 19.74530938 -6.38035266 20.625 -11.875 20.625 C-11.545 21.285 -11.215 21.945 -10.875 22.625 C-10.85327148 24.50439453 -10.85327148 24.50439453 -10.99609375 26.7578125 C-11.04443359 27.56347656 -11.09277344 28.36914062 -11.14257812 29.19921875 C-11.19865234 30.04097656 -11.25472656 30.88273437 -11.3125 31.75 C-11.39081055 33.02423828 -11.39081055 33.02423828 -11.47070312 34.32421875 C-11.60051378 36.42479124 -11.7371174 38.52494191 -11.875 40.625 C-13.195 40.625 -14.515 40.625 -15.875 40.625 C-17.11368281 36.90895157 -17.05654462 33.43469504 -17.078125 29.5625 C-17.08382507 28.77480225 -17.08952515 27.98710449 -17.09539795 27.17553711 C-17.10483636 25.5112441 -17.11137733 23.84693249 -17.11523438 22.18261719 C-17.12496397 19.63443659 -17.15600686 17.08705467 -17.1875 14.5390625 C-17.194028 12.92187979 -17.19927927 11.30469131 -17.203125 9.6875 C-17.2154718 8.92493896 -17.2278186 8.16237793 -17.24053955 7.37670898 C-17.21836761 2.12508411 -17.21836761 2.12508411 -15.54199219 -0.31640625 C-10.54686364 -3.48847382 -5.05502524 -2.41762077 0 0 Z M-12.875 3.625 C-12.545 7.255 -12.215 10.885 -11.875 14.625 C-6.0775577 14.86928343 -6.0775577 14.86928343 -0.875 12.625 C-0.50445129 7.98518125 -0.50445129 7.98518125 -1.9375 3.6875 C-5.37681897 1.80142186 -9.38716645 1.88108323 -12.875 3.625 Z " fill="#FEFEFE" transform="translate(572.875,297.375)"/>
<path d="M0 0 C5.53846154 3.07692308 5.53846154 3.07692308 7 6 C7.07092842 8.2072923 7.08415025 10.41667452 7.0625 12.625 C7.05347656 13.81351562 7.04445313 15.00203125 7.03515625 16.2265625 C7.02355469 17.14179688 7.01195312 18.05703125 7 19 C8.65 19.33 10.3 19.66 12 20 C11.125 23.875 11.125 23.875 10 25 C8.65732587 25.08631874 7.31025678 25.10706473 5.96484375 25.09765625 C5.15595703 25.09443359 4.34707031 25.09121094 3.51367188 25.08789062 C2.66353516 25.07951172 1.81339844 25.07113281 0.9375 25.0625 C0.08349609 25.05798828 -0.77050781 25.05347656 -1.65039062 25.04882812 C-3.76695663 25.03700373 -5.88348685 25.01906769 -8 25 C-8 24.34 -8 23.68 -8 23 C-8.66 23 -9.32 23 -10 23 C-11.73581353 19.52837293 -11.59308888 15.78768123 -11 12 C-7.81456816 8.25243313 -4.81114769 7.44754862 0 7 C0 6.34 0 5.68 0 5 C-3.63 5 -7.26 5 -11 5 C-8.14349137 -0.71301727 -6.17729171 -0.51477431 0 0 Z M-7 14 C-6.62095792 17.29075996 -6.62095792 17.29075996 -5 20 C-3.33382885 20.04063832 -1.66611905 20.042721 0 20 C0.66 17.69 1.32 15.38 2 13 C-2.74076549 11.81301999 -2.74076549 11.81301999 -7 14 Z " fill="#FEFEFE" transform="translate(601,313)"/>
<path d="M0 0 C1.32 0.33 2.64 0.66 4 1 C4 5.29 4 9.58 4 14 C5.32 14.66 6.64 15.32 8 16 C8.33 16.99 8.66 17.98 9 19 C8.34 19.66 7.68 20.32 7 21 C5.68 21 4.36 21 3 21 C3.0721875 21.80824219 3.144375 22.61648438 3.21875 23.44921875 C3.3115625 24.51785156 3.404375 25.58648437 3.5 26.6875 C3.5928125 27.74324219 3.685625 28.79898437 3.78125 29.88671875 C3.9723415 32.60636025 4.04043935 35.27539856 4 38 C4.66 38 5.32 38 6 38 C6.33 36.68 6.66 35.36 7 34 C7.66 34 8.32 34 9 34 C9.125 37.375 9.125 37.375 9 41 C7 43 7 43 3.5625 43.4375 C0 43 0 43 -1.7421875 41.0234375 C-3.45809212 36.89887174 -3.10250418 33.5689158 -2.6875 29.1875 C-2.62626953 28.39923828 -2.56503906 27.61097656 -2.50195312 26.79882812 C-2.34956343 24.86465127 -2.17680719 22.93209781 -2 21 C-3.98 21 -5.96 21 -8 21 C-9.125 16.25 -9.125 16.25 -8 14 C-6.02 14 -4.04 14 -2 14 C-1.93941406 13.07316406 -1.87882813 12.14632813 -1.81640625 11.19140625 C-1.73261719 9.99386719 -1.64882813 8.79632813 -1.5625 7.5625 C-1.48128906 6.36753906 -1.40007813 5.17257812 -1.31640625 3.94140625 C-1 1 -1 1 0 0 Z " fill="#FEFEFE" transform="translate(618,295)"/>
<path d="M0 0 C3.77494948 5.59251774 3.94608355 11.04068293 3.26953125 17.51953125 C2.53997371 20.00198542 1.78344737 20.98418092 -0.3125 22.5 C-5.03723971 23.40266112 -9.76961199 23.28553058 -13.875 20.625 C-16.29043699 18.51923442 -17.18393368 17.71396277 -17.515625 14.58203125 C-17.62888422 9.09839738 -17.13149228 5.26312489 -14.3125 0.5 C-9.9622318 -2.27933801 -4.41321867 -2.86262833 0 0 Z M-13.3125 6.5 C-12.88052365 11.2517398 -11.98480705 13.42000054 -8.3125 16.5 C-3.91935207 15.48839152 -3.91935207 15.48839152 -0.9375 12.375 C-0.73125 11.75625 -0.525 11.1375 -0.3125 10.5 C-2.90321892 6.72725469 -2.90321892 6.72725469 -6.8125 4.5625 C-9.59849403 4.49285015 -10.97802322 5.03014425 -13.3125 6.5 Z " fill="#FEFEFE" transform="translate(663.3125,316.5)"/>
<path d="M0 0 C0 1.32 0 2.64 0 4 C-1.32 4.33 -2.64 4.66 -4 5 C-4.66 8.3 -5.32 11.6 -6 15 C-4.68 15.66 -3.36 16.32 -2 17 C-2 18.65 -2 20.3 -2 22 C-3.32 22.33 -4.64 22.66 -6 23 C-5.97679687 23.92941406 -5.95359375 24.85882813 -5.9296875 25.81640625 C-5.75043937 38.09490334 -5.75043937 38.09490334 -8 44 C-8.99 44 -9.98 44 -11 44 C-12.20029908 41.59940183 -12.11459743 40.10639351 -12.09765625 37.4296875 C-12.09282227 36.08583984 -12.09282227 36.08583984 -12.08789062 34.71484375 C-12.07951172 33.77769531 -12.07113281 32.84054687 -12.0625 31.875 C-12.05798828 30.93011719 -12.05347656 29.98523438 -12.04882812 29.01171875 C-12.03702357 26.67441613 -12.02055759 24.33723939 -12 22 C-13.32 21.67 -14.64 21.34 -16 21 C-16 19.35 -16 17.7 -16 16 C-14.35 15.67 -12.7 15.34 -11 15 C-11.103125 14.01 -11.20625 13.02 -11.3125 12 C-11.3419557 7.18890207 -8.94737626 3.66189171 -6 0 C-3.50907189 -1.24546405 -2.58919267 -0.7767578 0 0 Z " fill="#FEFEFE" transform="translate(646,295)"/>
<path d="M0 0 C2.29199177 0.14063135 4.58359186 0.28765943 6.875 0.4375 C8.15117187 0.51871094 9.42734375 0.59992188 10.7421875 0.68359375 C14 1 14 1 16 2 C16 3.32 16 4.64 16 6 C11.71 6 7.42 6 3 6 C3.33 6.99 3.66 7.98 4 9 C5.258125 9.0825 6.51625 9.165 7.8125 9.25 C10.54899077 9.61874698 11.79520161 9.85105572 14.0625 11.5 C15.50202804 15.33874143 15.1391377 19.08511537 14 23 C12.6875 24.75390625 12.6875 24.75390625 11 26 C5.70496216 26.51242302 2.27397454 26.49688826 -2 23 C-2.33 22.01 -2.66 21.02 -3 20 C-2.67 19.34 -2.34 18.68 -2 18 C-1.29875 18.33 -0.5975 18.66 0.125 19 C3.30775326 20.10704461 5.65328734 20.29748557 9 20 C9.66 19.34 10.32 18.68 11 18 C11 17.01 11 16.02 11 15 C10.38511719 15.02320313 9.77023438 15.04640625 9.13671875 15.0703125 C7.92435547 15.09738281 7.92435547 15.09738281 6.6875 15.125 C5.88699219 15.14820313 5.08648437 15.17140625 4.26171875 15.1953125 C2 15 2 15 -1 13 C-1.328125 10.9765625 -1.328125 10.9765625 -1.25 8.625 C-1.23453125 7.85414063 -1.2190625 7.08328125 -1.203125 6.2890625 C-1.00838739 4.0945194 -0.59915017 2.11635304 0 0 Z " fill="#FFFFFF" transform="translate(169,179)"/>
<path d="M0 0 C3.3917644 0.0979964 4.32655756 0.20027652 7.0625 2.375 C9.98817935 8.10933153 11.35165883 13.03029508 9.625 19.375 C8.34756861 22.59390201 7.8906592 23.27810448 4.8125 25.125 C1.03921682 25.49492972 -0.99669422 25.16418962 -4.375 23.4375 C-7.44473413 19.73264846 -8.13751497 16.18720051 -8.375 11.4375 C-6.86106335 0.19375096 -6.86106335 0.19375096 0 0 Z M0.625 4.4375 C-2.49697478 5.7464572 -2.49697478 5.7464572 -4.375 8.4375 C-4.61053948 12.67721058 -4.70345886 15.79928302 -2.375 19.4375 C0.59565509 19.09522428 0.59565509 19.09522428 3.625 18.4375 C5.34069886 15.00610227 5.15417873 11.18985827 4.625 7.4375 C2.80228073 5.31394433 2.80228073 5.31394433 0.625 4.4375 Z " fill="#FEFEFE" transform="translate(153.375,178.5625)"/>
<path d="M0 0 C0.99 0.33 1.98 0.66 3 1 C3.9140625 3.6953125 3.9140625 3.6953125 4.625 7.125 C4.87121094 8.29675781 5.11742187 9.46851562 5.37109375 10.67578125 C6.0218593 14.11554204 6.59575133 17.52346145 7 21 C6.34 21 5.68 21 5 21 C4.67 22.32 4.34 23.64 4 25 C1.69 25.33 -0.62 25.66 -3 26 C-4.41738638 22.72910836 -5.58524673 19.38765914 -6.6875 16 C-6.95949219 15.175 -7.23148437 14.35 -7.51171875 13.5 C-8.08127265 10.58388403 -7.93166734 8.8179495 -7 6 C-5.4765625 4.1640625 -5.4765625 4.1640625 -3.625 2.625 C-3.01914062 2.10164063 -2.41328125 1.57828125 -1.7890625 1.0390625 C-0.90347656 0.52472656 -0.90347656 0.52472656 0 0 Z " fill="#FEFEFE" transform="translate(268,98)"/>
<path d="M0 0 C0.89190447 14.10058495 0.99371474 27.90453858 0 42 C-1.65 42 -3.3 42 -5 42 C-5 28.8 -5 15.6 -5 2 C-1 0 -1 0 0 0 Z " fill="#FEFEFE" transform="translate(585,296)"/>
<path d="M0 0 C1.32 0 2.64 0 4 0 C4 0.99 4 1.98 4 3 C6.31 2.34 8.62 1.68 11 1 C12.5 2.1875 12.5 2.1875 14 4 C14.1875 6.6875 14.1875 6.6875 14 9 C13.236875 9.12375 12.47375 9.2475 11.6875 9.375 C8.79732864 9.88102792 8.79732864 9.88102792 6 12 C5.19663887 14.87759068 5.19663887 14.87759068 4.8125 18.125 C4.65394531 19.22070312 4.49539063 20.31640625 4.33203125 21.4453125 C4.22246094 22.28835938 4.11289062 23.13140625 4 24 C2.0625 24.5625 2.0625 24.5625 0 25 C-1.68516954 23.31483046 -1.13008019 21.21232212 -1.1328125 18.90625 C-1.13474609 17.36130859 -1.13474609 17.36130859 -1.13671875 15.78515625 C-1.13285156 14.70105469 -1.12898437 13.61695313 -1.125 12.5 C-1.12886719 11.41589844 -1.13273438 10.33179688 -1.13671875 9.21484375 C-1.13542969 8.18488281 -1.13414062 7.15492188 -1.1328125 6.09375 C-1.13168457 5.14177734 -1.13055664 4.18980469 -1.12939453 3.20898438 C-1 1 -1 1 0 0 Z " fill="#FEFEFE" transform="translate(673,314)"/>
<path d="M0 0 C6.26480445 1.74732641 10.88233868 3.97120279 16 8 C14.89169747 13.44915409 13.89985574 16.84015388 10 21 C8.1015625 20.72265625 8.1015625 20.72265625 6 20 C3.63855454 14.82298494 2.28393383 9.53079189 1 4 C0.34 4 -0.32 4 -1 4 C-0.67 2.68 -0.34 1.36 0 0 Z " fill="#FFFFFF" transform="translate(616,265)"/>
<path d="M0 0 C0.556875 0.226875 1.11375 0.45375 1.6875 0.6875 C1.36256385 4.2617977 1.04879314 6.24462453 -1.25 9.0625 C-3.3125 10.6875 -3.3125 10.6875 -5.3125 10.6875 C-5.580625 11.285625 -5.84875 11.88375 -6.125 12.5 C-7.33743496 14.73343283 -8.25902273 16.18688199 -10.3125 17.6875 C-12.82070002 17.5307375 -14.05894922 16.87766309 -16.0625 15.375 C-17.3125 13.6875 -17.3125 13.6875 -17.3125 9.6875 C-16.6525 9.6875 -15.9925 9.6875 -15.3125 9.6875 C-14.9825 8.6975 -14.6525 7.7075 -14.3125 6.6875 C-12.6163509 5.64371594 -10.91230652 4.60794967 -9.15234375 3.67578125 C-7.1251377 2.6264693 -7.1251377 2.6264693 -4.625 0.875 C-2.3125 -0.3125 -2.3125 -0.3125 0 0 Z " fill="#FFFFFF" transform="translate(607.3125,263.3125)"/>
<path d="M0 0 C1.32 0.33 2.64 0.66 4 1 C4.33 8.59 4.66 16.18 5 24 C3.35 24.33 1.7 24.66 0 25 C-1.82181262 21.35637476 -1.47718326 17.0809519 -1.6875 13.0625 C-1.74744141 12.14275391 -1.80738281 11.22300781 -1.86914062 10.27539062 C-1.91619141 9.39173828 -1.96324219 8.50808594 -2.01171875 7.59765625 C-2.05772217 6.78820557 -2.10372559 5.97875488 -2.15112305 5.14477539 C-2 3 -2 3 0 0 Z " fill="#FFFFFF" transform="translate(755,315)"/>
<path d="M0 0 C1.65 0 3.3 0 5 0 C6.125 2.3125 6.125 2.3125 7 5 C6.01 6.485 6.01 6.485 5 8 C2.03 7.505 2.03 7.505 -1 7 C-0.67 4.69 -0.34 2.38 0 0 Z " fill="#FFFFFF" transform="translate(753,306)"/>
<path d="M0 0 C2 1 2 1 2 1 Z " fill="#FFFFFF" transform="translate(584,271)"/>
<path d="" fill="#FFFFFF" transform="translate(0,0)"/>
<path d="" fill="#FFFFFF" transform="translate(0,0)"/>
<path d="" fill="#FFFFFF" transform="translate(0,0)"/>
<path d="" fill="#FFFFFF" transform="translate(0,0)"/>
<path d="" fill="#FFFFFF" transform="translate(0,0)"/>
<path d="" fill="#FFFFFF" transform="translate(0,0)"/>
</svg>
